<svg id="Glyph" height="300" viewBox="0 0 64 64" width="300" xmlns="http://www.w3.org/2000/svg" version="1.1" xmlns:xlink="http://www.w3.org/1999/xlink" xmlns:svgjs="http://svgjs.dev/svgjs"><g width="100%" height="100%" transform="matrix(1,0,0,1,0,0)"><g fill="rgb(0,0,0)"><path d="m48.59 6.72h-33.18a11.41 11.41 0 0 0 0 22.82h13.7l-.3-1.71a3.95675 3.95675 0 0 1 5.61-4.26l12.48 5.97h1.69c15.12692-.59116 15.147-22.19186 0-22.82zm-33.45 14.79a1.00011 1.00011 0 0 1 -2-.00005v-9.72995a1.003 1.003 0 0 1 1-1h3.87a3.26517 3.26517 0 0 1 -.0001 6.53h-2.8699zm16.12-3.95a4.32018 4.32018 0 0 1 -8.64-.0001v-2.6699a4.32 4.32 0 0 1 8.64 0zm5.86-2.34a3.25021 3.25021 0 0 1 -.0001 6.5h-2.2499a1.0002 1.0002 0 0 1 .00006-2h2.24994a1.25013 1.25013 0 0 0 -.00006-2.5 3.25021 3.25021 0 0 1 .00015-6.5h2.24991a1.0002 1.0002 0 0 1 -.00007 2h-2.24993a1.25013 1.25013 0 0 0 0 2.5zm4.73-3.07a.99655.99655 0 0 1 1-1h7.67a1 1 0 0 1 0 2h-2.83v8a1.0001 1.0001 0 0 1 -2 0v-8h-2.84a1.00291 1.00291 0 0 1 -1-1z" fill="#491069" fill-opacity="1" data-original-color="#000000ff" stroke="none" stroke-opacity="1"/><path d="m49.46 41.15a.7703.7703 0 0 1 .3-1.18l3.54-1.57a1.97384 1.97384 0 0 0 .04992-3.56l-19.79992-9.47a1.97113 1.97113 0 0 0 -2.76991 2.11l3.80991 21.61a1.97214 1.97214 0 0 0 3.47.86991l2.61-3.32991a.86662.86662 0 0 1 .62-.29.77222.77222 0 0 1 .61.3l6.49 8.64a3.0142 3.0142 0 0 0 4.21.59l2.77-2.09a3.03532 3.03532 0 0 0 .57-4.23z" fill="#491069" fill-opacity="1" data-original-color="#000000ff" stroke="none" stroke-opacity="1"/><path d="m19.28 14.04a1.26974 1.26974 0 0 0 -1.27-1.26h-2.87v2.53h2.87a1.27182 1.27182 0 0 0 1.27-1.27z" fill="#491069" fill-opacity="1" data-original-color="#000000ff" stroke="none" stroke-opacity="1"/><path d="m26.94 12.57a2.32164 2.32164 0 0 0 -2.32 2.32v2.67a2.32015 2.32015 0 0 0 4.64-.00007v-2.66993a2.32168 2.32168 0 0 0 -2.32-2.32z" fill="#491069" fill-opacity="1" data-original-color="#000000ff" stroke="none" stroke-opacity="1"/></g></g></svg>