<svg xmlns="http://www.w3.org/2000/svg" width="50" height="50" viewBox="0 0 50 50" fill="none"><rect width="50" height="50" rx="10" fill="#525E6B" fill-opacity="0.2"></rect><path fill-rule="evenodd" clip-rule="evenodd" d="M19.9375 14.0918C20.83 16.4014 19.8925 17.2726 17.125 16.7054C17.125 17.2282 17.125 17.7509 17.125 18.2736C19.7567 18.187 22.3817 18.2741 25 18.535C25.7441 18.9615 26.119 19.5714 26.125 20.3646C21.9957 20.2776 17.8708 20.3647 13.75 20.6259C12.7245 21.1472 11.787 21.7571 10.9375 22.4555C10.9375 22.107 10.9375 21.7585 10.9375 21.41C11.6875 19.4933 12.4375 17.5767 13.1875 15.66C15.1612 14.2931 17.4112 13.7704 19.9375 14.0918Z" fill="#8B95A0"></path><path fill-rule="evenodd" clip-rule="evenodd" d="M19.9375 14.0918C24.8161 14.0048 29.6911 14.0919 34.5625 14.3532C35.3972 14.6993 36.1472 15.1349 36.8125 15.66C37.0333 16.5924 37.4083 17.4637 37.9375 18.2736C37.691 18.2395 37.5035 18.3265 37.375 18.535C37.976 19.8095 38.726 20.9421 39.625 21.9328C39.625 22.2813 39.625 22.6297 39.625 22.9782C38.5375 21.8827 37.225 21.0986 35.6875 20.6259C32.5055 20.3649 29.318 20.2777 26.125 20.3646C26.119 19.5714 25.7441 18.9615 25 18.535C22.3817 18.2741 19.7567 18.187 17.125 18.2736C17.125 17.7509 17.125 17.2282 17.125 16.7055C19.8925 17.2726 20.83 16.4014 19.9375 14.0918Z" fill="#808B97"></path><path opacity="0.975" fill-rule="evenodd" clip-rule="evenodd" d="M37.9375 18.2737C39.4109 18.1335 40.8172 18.3077 42.1562 18.7964C43.0385 21.1056 42.1948 22.151 39.625 21.9328C38.726 20.9422 37.976 19.8096 37.375 18.5351C37.5035 18.3266 37.691 18.2395 37.9375 18.2737Z" fill="#DFF8FE"></path><path opacity="0.993" fill-rule="evenodd" clip-rule="evenodd" d="M26.125 20.3645C29.3179 20.2777 32.5055 20.3649 35.6875 20.6259C37.225 21.0986 38.5375 21.8827 39.625 22.9782C39.625 23.5009 39.625 24.0237 39.625 24.5464C39.625 25.7661 39.625 26.9858 39.625 28.2055C39.9378 30.383 39.3753 32.2997 37.9375 33.9555C33.5161 36.8458 29.2036 36.6716 25 33.4328C20.7581 36.5644 16.4456 36.7387 12.0625 33.9555C11.4434 33.378 11.0684 32.681 10.9375 31.8646C10.5332 30.6812 10.3457 29.4616 10.375 28.2055C10.375 27.16 10.375 26.1146 10.375 25.0691C10.2149 24.0682 10.4024 23.1971 10.9375 22.4555C11.787 21.757 12.7245 21.1472 13.75 20.6259C17.8707 20.3647 21.9957 20.2776 26.125 20.3645Z" fill="#525E6B"></path><path opacity="0.981" fill-rule="evenodd" clip-rule="evenodd" d="M10.9375 21.4101C10.9375 21.7586 10.9375 22.1071 10.9375 22.4556C10.4025 23.1972 10.215 24.0684 10.375 25.0692C9.18205 25.1606 8.05705 24.9863 7 24.5465C7 23.6753 7 22.8041 7 21.9329C8.24707 21.4788 9.55957 21.3045 10.9375 21.4101Z" fill="#DFF9FE"></path><path opacity="0.979" fill-rule="evenodd" clip-rule="evenodd" d="M39.625 24.5464C40.818 24.4551 41.943 24.6293 43 25.0691C43 25.9403 43 26.8115 43 27.6828C41.943 28.1226 40.818 28.2968 39.625 28.2055C39.625 26.9858 39.625 25.7661 39.625 24.5464Z" fill="#E0F9FF"></path><path opacity="0.989" fill-rule="evenodd" clip-rule="evenodd" d="M10.375 28.2055C10.3458 29.4616 10.5333 30.6813 10.9375 31.8646C9.55957 31.9702 8.24707 31.7959 7 31.3419C7 30.4706 7 29.5995 7 28.7282C8.05705 28.2884 9.18205 28.1142 10.375 28.2055Z" fill="#DFF9FE"></path><path fill-rule="evenodd" clip-rule="evenodd" d="M14.3125 23.501C21.44 23.4139 28.5649 23.501 35.6875 23.7623C37.0816 33.2228 33.5191 35.2265 25 29.7737C16.2678 35.2139 12.7053 33.123 14.3125 23.501Z" fill="#6F7B87"></path><path fill-rule="evenodd" clip-rule="evenodd" d="M30.0626 25.0692C34.7418 25.3237 35.6792 27.1532 32.8751 30.5578C28.1432 30.4594 27.2057 28.6298 30.0626 25.0692Z" fill="#7FDEF0"></path><path fill-rule="evenodd" clip-rule="evenodd" d="M17.1251 25.0692C21.8043 25.3237 22.7417 27.1532 19.9376 30.5578C15.2057 30.4594 14.2682 28.6298 17.1251 25.0692Z" fill="#7DDCEF"></path></svg>