<svg xmlns="http://www.w3.org/2000/svg" width="50" height="50" viewBox="0 0 50 50" fill="none"><rect width="50" height="50" rx="10" fill="#008EFF" fill-opacity="0.2"></rect><path opacity="0.012" fill-rule="evenodd" clip-rule="evenodd" d="M35.2056 8.38574C35.5698 7.95127 36.0551 7.88382 36.6615 8.18337C36.2014 8.37877 35.7161 8.44622 35.2056 8.38574Z" fill="#4DB6F3"></path><path opacity="0.01" fill-rule="evenodd" clip-rule="evenodd" d="M34.7208 8.79047C33.5771 8.85657 32.4447 8.78911 31.3237 8.5881C32.5557 8.26601 33.688 8.33347 34.7208 8.79047Z" fill="#42B4FC"></path><path opacity="0.01" fill-rule="evenodd" clip-rule="evenodd" d="M27.4409 9.19516C27.9752 8.75063 28.6223 8.68318 29.3821 8.99279C28.7545 9.19112 28.1074 9.25857 27.4409 9.19516Z" fill="#6CCBF9"></path><path opacity="0.01" fill-rule="evenodd" clip-rule="evenodd" d="M26.956 9.59994C25.3303 9.66673 23.7127 9.59927 22.103 9.39758C23.8145 9.07076 25.4322 9.13821 26.956 9.59994Z" fill="#5DBBF5"></path><path opacity="0.024" fill-rule="evenodd" clip-rule="evenodd" d="M37.6321 8.79041C38.1045 8.9874 38.5898 9.18976 39.088 9.3975C38.2836 9.691 37.7983 9.48863 37.6321 8.79041Z" fill="#2EA8F3"></path><path opacity="0.01" fill-rule="evenodd" clip-rule="evenodd" d="M15.3088 10.0047C16.5058 9.5457 17.7999 9.47824 19.1912 9.80232C17.9071 10.0036 16.613 10.0711 15.3088 10.0047Z" fill="#25E6F8"></path><path opacity="0.027" fill-rule="evenodd" clip-rule="evenodd" d="M29.8675 9.59991C30.3885 9.90369 30.4693 10.3084 30.1102 10.8141C29.8759 10.4304 29.795 10.0257 29.8675 9.59991Z" fill="#40C8FA"></path><path opacity="0.918" fill-rule="evenodd" clip-rule="evenodd" d="M34.7203 8.79041C35.5291 8.79041 36.3379 8.79041 37.1467 8.79041C37.1467 9.19514 37.1467 9.59987 37.1467 10.0046C37.7938 10.0046 38.4409 10.0046 39.0879 10.0046C38.9448 11.561 38.9448 13.045 39.0879 14.4567C38.9262 14.4567 38.7644 14.4567 38.6026 14.4567C38.4368 14.1174 38.1132 13.9825 37.632 14.0519C37.632 13.917 37.632 13.7821 37.632 13.6472C37.2476 13.2351 36.4388 13.1002 35.2055 13.2425C35.2055 12.8377 35.2055 12.433 35.2055 12.0283C35.6868 12.0977 36.0103 11.9628 36.1761 11.6235C36.8232 11.3537 36.8232 11.0839 36.1761 10.8141C35.1161 10.5039 33.9837 10.2341 32.7791 10.0046C32.2823 10.5523 31.6352 10.8221 30.8379 10.8141C30.8379 10.2744 30.8379 9.73478 30.8379 9.19514C32.2382 9.31915 33.5323 9.18424 34.7203 8.79041Z" fill="#3997EF"></path><path opacity="0.01" fill-rule="evenodd" clip-rule="evenodd" d="M13.8529 10.8141C14.3738 11.1179 14.4547 11.5227 14.0955 12.0283C13.8612 11.6447 13.7803 11.2399 13.8529 10.8141Z" fill="#43D4FA"></path><path opacity="0.582" fill-rule="evenodd" clip-rule="evenodd" d="M36.1761 10.8142C36.1761 11.084 36.1761 11.3538 36.1761 11.6236C35.4644 10.5073 35.1409 10.6422 35.2055 12.0284C35.2055 12.4331 35.2055 12.8378 35.2055 13.2426C36.4388 13.1003 37.2476 13.2352 37.632 13.6473C37.3085 13.6473 36.985 13.6473 36.6614 13.6473C35.739 13.6203 34.8493 13.7552 33.9923 14.052C33.7497 13.9171 33.507 13.7822 33.2644 13.6473C33.7497 13.3775 34.235 13.1077 34.7202 12.8378C34.0125 12.319 33.3654 12.319 32.7791 12.8378C32.132 12.8378 31.8085 13.1077 31.8085 13.6473C31.1893 13.2885 31.1893 12.8838 31.8085 12.4331C32.7347 12.0898 33.7053 11.9549 34.7202 12.0284C34.7202 11.6236 34.7202 11.2189 34.7202 10.8142C33.4453 11.0536 32.1512 11.1885 30.8379 11.2189C30.8379 11.084 30.8379 10.9491 30.8379 10.8142C31.6352 10.8222 32.2823 10.5524 32.7791 10.0047C33.9837 10.2342 35.1161 10.504 36.1761 10.8142ZM32.7791 12.8378C32.7791 13.3775 32.4555 13.6473 31.8085 13.6473C31.8085 13.1077 32.132 12.8378 32.7791 12.8378Z" fill="#1D65EC"></path><path opacity="0.012" fill-rule="evenodd" clip-rule="evenodd" d="M39.5736 10.0047C40.1239 11.0029 40.2048 12.0822 39.8162 13.2426C39.5748 12.1716 39.4939 11.0923 39.5736 10.0047Z" fill="#1D79E9"></path><path opacity="0.01" fill-rule="evenodd" clip-rule="evenodd" d="M9.48511 14.052C9.84937 13.6175 10.3347 13.5501 10.941 13.8496C10.4809 14.045 9.99564 14.1125 9.48511 14.052Z" fill="#98F5FC"></path><path opacity="0.01" fill-rule="evenodd" clip-rule="evenodd" d="M11.4263 14.052C11.7905 13.6175 12.2758 13.5501 12.8822 13.8496C12.4221 14.045 11.9368 14.1125 11.4263 14.052Z" fill="#97F5FD"></path><path opacity="0.012" fill-rule="evenodd" clip-rule="evenodd" d="M13.3677 14.052C13.5601 13.6371 13.8836 13.5697 14.3383 13.8496C14.0498 14.0375 13.7263 14.105 13.3677 14.052Z" fill="#79F1FE"></path><path opacity="0.996" fill-rule="evenodd" clip-rule="evenodd" d="M29.3822 10.0047C29.3822 10.4094 29.3822 10.8142 29.3822 11.2189C29.8675 11.2189 30.3528 11.2189 30.838 11.2189C32.1514 11.1885 33.4454 11.0536 34.7204 10.8142C34.7204 11.2189 34.7204 11.6236 34.7204 12.0284C33.7055 11.9549 32.7349 12.0898 31.8086 12.4331C31.1895 12.8838 31.1895 13.2885 31.8086 13.6473C32.4557 13.6473 32.7792 13.3775 32.7792 12.8378C33.3656 12.319 34.0127 12.319 34.7204 12.8378C34.2351 13.1077 33.7498 13.3775 33.2645 13.6473C33.5072 13.7822 33.7498 13.9171 33.9925 14.052C34.8494 13.7552 35.7391 13.6203 36.6616 13.6473C36.8274 13.9865 37.151 14.1215 37.6322 14.052C37.6322 14.1869 37.6322 14.3219 37.6322 14.4568C35.5292 14.4568 33.4263 14.4568 31.3233 14.4568C31.3912 15.114 31.0677 15.5861 30.3528 15.8733C31.2267 16.0017 31.3884 16.2716 30.838 16.6828C29.0167 17.4878 27.0756 17.825 25.0145 17.6946C25.4781 16.7857 25.8016 15.8413 25.9851 14.8615C26.4704 14.8615 26.9557 14.8615 27.441 14.8615C27.3623 14.041 27.4432 13.2315 27.6836 12.4331C28.2016 12.1536 28.7678 11.9513 29.3822 11.826C28.5891 11.6263 27.7803 11.5588 26.9557 11.6236C26.4891 12.3378 26.3274 13.1473 26.4704 14.052C25.5412 13.9369 24.7324 14.0718 24.0439 14.4568C23.6052 14.1698 23.4435 13.7651 23.5586 13.2426C24.2057 13.2426 24.8528 13.2426 25.4998 13.2426C26.1208 12.9803 26.1208 12.4407 25.4998 11.6236C25.0186 11.6931 24.695 11.5581 24.5292 11.2189C25.6288 11.3641 26.5186 11.0943 27.1983 10.4094C28.0796 10.9126 28.8076 10.7777 29.3822 10.0047ZM31.8086 13.6473C32.4557 13.6473 32.7792 13.3775 32.7792 12.8378C32.1322 12.8378 31.8086 13.1077 31.8086 13.6473ZM26.9557 11.6236C26.9557 12.568 26.9557 13.5124 26.9557 14.4568C25.9851 14.4568 25.0145 14.4568 24.0439 14.4568C24.7324 14.0718 25.5412 13.9369 26.4704 14.052C26.3274 13.1473 26.4891 12.3378 26.9557 11.6236Z" fill="#259DF2"></path><path opacity="0.998" fill-rule="evenodd" clip-rule="evenodd" d="M37.6323 14.4568C37.9558 14.4568 38.2793 14.4568 38.6029 14.4568C38.6029 14.7266 38.7646 14.8615 39.0881 14.8615C39.2499 15.4011 39.4117 15.9408 39.5734 16.4805C38.8252 16.1564 38.0164 16.0215 37.147 16.0757C35.4323 16.7632 33.8955 17.7075 32.5367 18.9088C32.2111 18.6043 31.8067 18.4694 31.3234 18.5041C29.3822 18.5041 27.4411 18.5041 25.4999 18.5041C25.3381 18.5041 25.1763 18.5041 25.0146 18.5041C24.8528 18.2343 24.691 17.9645 24.5293 17.6946C24.691 17.6946 24.8528 17.6946 25.0146 17.6946C27.0756 17.8251 29.0168 17.4878 30.8381 16.6828C31.3885 16.2716 31.2268 16.0018 30.3528 15.8734C31.0678 15.5862 31.3913 15.114 31.3234 14.4568C33.4264 14.4568 35.5293 14.4568 37.6323 14.4568Z" fill="#2A84E9"></path><path opacity="0.01" fill-rule="evenodd" clip-rule="evenodd" d="M39.0881 14.4568C39.7352 14.7266 39.7352 14.7266 39.0881 14.4568Z" fill="#6090F4"></path><path opacity="0.012" fill-rule="evenodd" clip-rule="evenodd" d="M8.02915 14.8615C8.55011 15.1652 8.63096 15.57 8.27179 16.0756C8.03749 15.692 7.95659 15.2872 8.02915 14.8615Z" fill="#1AE3F8"></path><path opacity="0.996" fill-rule="evenodd" clip-rule="evenodd" d="M26.9555 9.59994C27.8847 9.48481 28.6935 9.61971 29.382 10.0047C28.8074 10.7777 28.0795 10.9126 27.1982 10.4094C26.5184 11.0943 25.6287 11.3641 24.5291 11.2189C24.0034 11.2029 23.5181 11.068 23.0732 10.8141C22.6587 11.2277 22.1734 11.565 21.6173 11.826C22.7496 11.9609 23.882 12.0958 25.0144 12.2307C24.1268 12.3414 23.3989 12.6787 22.8305 13.2425C22.2881 14.1594 21.8836 15.1038 21.6173 16.0757C20.7496 15.9602 19.9407 16.0951 19.1908 16.4804C19.2508 16.726 19.4125 16.8608 19.6761 16.8851C19.9997 16.8851 20.3232 16.8851 20.6467 16.8851C20.6658 17.3235 20.8276 17.7283 21.132 18.0993C20.2626 18.3704 19.4538 18.6403 18.7055 18.9088C18.0666 20.0138 18.0666 21.1605 18.7055 22.349C18.2455 22.5444 17.7602 22.6119 17.2496 22.5514C17.2496 21.2023 17.2496 19.8532 17.2496 18.5041C16.4408 18.5041 15.632 18.5041 14.8232 18.5041C14.7596 18.205 14.8405 17.9352 15.0658 17.6946C15.5511 18.2342 16.0364 18.2342 16.5217 17.6946C16.8574 17.3154 16.7765 17.0456 16.279 16.8851C15.7103 16.3973 15.0633 16.3973 14.3379 16.8851C14.007 16.5845 13.6834 16.3147 13.3673 16.0757C12.5584 16.0757 11.7496 16.0757 10.9408 16.0757C10.4685 16.6763 9.82137 16.8787 8.99962 16.6828C9.32317 16.5479 9.64667 16.4129 9.97021 16.278C9.19054 15.8535 8.86699 15.2464 8.99962 14.4567C10.9408 14.4567 12.882 14.4567 14.8232 14.4567C14.8232 14.052 14.8232 13.6473 14.8232 13.2425C17.0267 13.311 17.1885 13.0412 15.3085 12.4331C14.9157 11.7973 14.7539 11.1227 14.8232 10.4094C16.279 10.4094 17.7349 10.4094 19.1908 10.4094C19.2186 12.5066 19.5422 12.5066 20.1614 10.4094C20.8906 11.9773 21.2141 11.8424 21.132 10.0047C23.171 10.1329 25.1122 9.99797 26.9555 9.59994Z" fill="#3DC3F5"></path><path opacity="0.012" fill-rule="evenodd" clip-rule="evenodd" d="M40.0586 16.4804C39.995 16.1813 40.0759 15.9115 40.3012 15.6709C40.6369 16.0501 40.556 16.3198 40.0586 16.4804Z" fill="#3690F7"></path><path opacity="0.992" fill-rule="evenodd" clip-rule="evenodd" d="M24.5291 11.2189C24.6949 11.5581 25.0185 11.6931 25.4997 11.6236C25.4997 12.1632 25.4997 12.7029 25.4997 13.2425C24.8527 13.2425 24.2056 13.2425 23.5585 13.2425C23.4434 13.7651 23.6051 14.1698 24.0438 14.4567C25.0144 14.4567 25.985 14.4567 26.9556 14.4567C26.9556 13.5124 26.9556 12.568 26.9556 11.6236C27.7802 11.5588 28.589 11.6262 29.3821 11.826C28.7677 11.9512 28.2015 12.1536 27.6835 12.4331C27.4431 13.2315 27.3622 14.041 27.4409 14.8615C26.9556 14.8615 26.4703 14.8615 25.985 14.8615C25.8015 15.8413 25.478 16.7857 25.0144 17.6946C24.8527 17.6946 24.6909 17.6946 24.5291 17.6946C24.237 20.1114 23.6708 22.5398 22.8306 24.9798C22.6955 24.6091 22.4528 24.3393 22.1026 24.1703C21.9 23.8783 21.5765 23.6759 21.132 23.5632C21.8778 23.1141 22.2014 22.507 22.1026 21.7419C22.1026 21.4721 22.1026 21.2023 22.1026 20.9325C21.7791 20.3928 21.4556 20.3928 21.132 20.9325C20.6855 21.1621 20.5237 20.8923 20.6467 20.123C21.1573 20.1835 21.6426 20.116 22.1026 19.9206C21.3096 19.7209 20.5008 19.6534 19.6762 19.7183C19.5103 19.379 19.1868 19.2441 18.7056 19.3135C18.7056 19.1786 18.7056 19.0437 18.7056 18.9088C19.4538 18.6403 20.2627 18.3704 21.132 18.0993C20.8277 17.7283 20.6659 17.3235 20.6467 16.8851C20.3232 16.3455 19.9997 16.3455 19.6762 16.8851C19.4126 16.8609 19.2508 16.726 19.1909 16.4804C19.9408 16.0951 20.7496 15.9602 21.6173 16.0757C21.8837 15.1038 22.2881 14.1594 22.8306 13.2425C23.3989 12.6787 24.1268 12.3414 25.0144 12.2307C23.8821 12.0958 22.7497 11.9609 21.6173 11.826C22.1735 11.565 22.6588 11.2277 23.0732 10.8141C23.5181 11.068 24.0034 11.2029 24.5291 11.2189ZM26.9556 11.6236C26.9556 12.568 26.9556 13.5124 26.9556 14.4567C25.985 14.4567 25.0144 14.4567 24.0438 14.4567C24.7323 14.0718 25.5411 13.9369 26.4703 14.052C26.3273 13.1473 26.489 12.3378 26.9556 11.6236Z" fill="#21ADF1"></path><path opacity="0.99" fill-rule="evenodd" clip-rule="evenodd" d="M10.9412 16.0756C11.75 16.0756 12.5588 16.0756 13.3677 16.0756C13.3677 16.4804 13.3677 16.8851 13.3677 17.2898C14.3697 17.2829 15.3403 17.148 16.2794 16.8851C16.7769 17.0456 16.8578 17.3154 16.5221 17.6946C16.0368 18.2342 15.5515 18.2342 15.0662 17.6946C14.8409 17.9351 14.76 18.205 14.8235 18.504C12.9742 18.5428 12.9742 18.8126 14.8235 19.3135C14.2466 19.6894 13.5995 19.8243 12.8824 19.7182C12.8824 19.0436 12.8824 18.3691 12.8824 17.6946C12.3971 17.6946 11.9118 17.6946 11.4265 17.6946C11.4265 18.504 11.4265 19.3135 11.4265 20.1229C11.9118 20.1229 12.3971 20.1229 12.8824 20.1229C13.2059 20.1229 13.3677 20.2578 13.3677 20.5277C13.3677 20.7975 13.3677 21.0673 13.3677 21.3371C11.1641 21.2687 11.0023 21.5385 12.8824 22.1466C11.6271 22.5433 10.3331 22.6782 9 22.5513C9 22.1466 9 21.7419 9 21.3371C11.5882 21.0673 11.5882 20.7975 9 20.5277C9 19.4484 9 18.3691 9 17.2898C9.64704 17.2898 10.2941 17.2898 10.9412 17.2898C10.9412 16.8851 10.9412 16.4804 10.9412 16.0756Z" fill="#2DC9F4"></path><path opacity="0.012" fill-rule="evenodd" clip-rule="evenodd" d="M40.5443 16.8851C41.0947 17.8833 41.1755 18.9626 40.7869 20.1229C40.5455 19.052 40.4646 17.9727 40.5443 16.8851Z" fill="#117DEC"></path><path opacity="0.01" fill-rule="evenodd" clip-rule="evenodd" d="M8.02941 17.2899C8.57736 18.1512 8.65826 19.0956 8.27206 20.123C8.03106 19.1881 7.95016 18.2437 8.02941 17.2899Z" fill="#20B6EB"></path><path opacity="0.996" fill-rule="evenodd" clip-rule="evenodd" d="M37.147 16.0757C38.0164 16.0215 38.8252 16.1564 39.5734 16.4804C39.7352 16.4804 39.897 16.4804 40.0587 16.4804C40.0587 17.8295 40.0587 19.1787 40.0587 20.5277C39.652 20.666 39.4902 20.9359 39.5734 21.3372C39.2499 21.3372 39.0881 21.4721 39.0881 21.7419C38.4057 21.9334 38.0821 22.3382 38.1176 22.9561C37.6363 22.8867 37.3128 23.0216 37.147 23.3609C36.8234 23.3609 36.6617 23.4958 36.6617 23.7656C33.6563 24.2503 33.8181 24.7899 37.147 25.3845C36.609 25.7043 35.9619 25.9066 35.2058 25.9916C35.3675 26.1265 35.5293 26.2615 35.6911 26.3964C34.7455 26.7943 33.8558 27.2665 33.022 27.8129C31.1855 26.9447 29.3252 26.8097 27.4411 27.4082C26.923 27.7864 26.2759 27.9213 25.4999 27.8129C25.4999 28.7573 25.4999 29.7017 25.4999 30.6461C27.6994 30.5173 29.8023 30.6522 31.8087 31.0508C29.544 31.0508 27.2793 31.0508 25.0146 31.0508C25.0146 29.8366 25.0146 28.6224 25.0146 27.4082C27.4411 27.2046 27.2793 27.0697 24.5293 27.0035C24.5293 26.8686 24.5293 26.7336 24.5293 26.5987C26.4705 26.5987 28.4117 26.5987 30.3528 26.5987C30.2697 25.3895 30.9167 24.5801 32.294 24.1703C31.8279 23.6392 31.9088 23.0996 32.5367 22.5514C33.7717 22.0015 34.985 21.3944 36.1764 20.7301C35.8528 20.4603 35.5293 20.1905 35.2058 19.9206C36.2858 19.6936 37.2564 19.2888 38.1176 18.7065C38.232 18.2542 38.232 17.782 38.1176 17.2899C37.9558 16.2106 37.794 16.2106 37.6323 17.2899C37.1936 17.0029 37.0318 16.5982 37.147 16.0757Z" fill="#237FEA"></path><path opacity="0.01" fill-rule="evenodd" clip-rule="evenodd" d="M31.3234 18.9088C31.3234 19.7183 31.3234 20.5277 31.3234 21.3372C30.972 20.6417 30.6485 19.8997 30.3528 19.1112C30.6412 18.9232 30.9648 18.8558 31.3234 18.9088Z" fill="#349CF6"></path><path opacity="0.01" fill-rule="evenodd" clip-rule="evenodd" d="M40.0586 20.5277C40.7056 20.7975 40.7056 21.0673 40.0586 21.3372C40.0586 21.0673 40.0586 20.7975 40.0586 20.5277Z" fill="#1C62DF"></path><path opacity="0.012" fill-rule="evenodd" clip-rule="evenodd" d="M39.5732 21.3372C39.735 21.3372 39.8968 21.3372 40.0585 21.3372C39.9686 21.6084 39.8068 21.6084 39.5732 21.3372Z" fill="#1361E2"></path><path opacity="0.01" fill-rule="evenodd" clip-rule="evenodd" d="M39.0881 21.7419C39.2499 21.7419 39.4117 21.7419 39.5734 21.7419C39.4835 22.0132 39.3217 22.0132 39.0881 21.7419Z" fill="#0076FF"></path><path opacity="0.012" fill-rule="evenodd" clip-rule="evenodd" d="M8.02915 21.7419C8.55011 22.0457 8.63096 22.4505 8.27179 22.9561C8.03749 22.5725 7.95659 22.1677 8.02915 21.7419Z" fill="#13BAEF"></path><path opacity="0.996" fill-rule="evenodd" clip-rule="evenodd" d="M37.147 16.0756C37.0318 16.5981 37.1936 17.0029 37.6323 17.2898C37.794 17.2898 37.9558 17.2898 38.1176 17.2898C38.232 17.782 38.232 18.2541 38.1176 18.7064C37.2563 19.2888 36.2858 19.6935 35.2058 19.9206C35.5293 20.1904 35.8528 20.4602 36.1764 20.73C34.985 21.3943 33.7717 22.0014 32.5367 22.5513C31.9088 23.0995 31.8279 23.6391 32.294 24.1703C30.9167 24.58 30.2697 25.3895 30.3528 26.5987C28.4117 26.5987 26.4705 26.5987 24.5293 26.5987C25.7553 25.6926 26.0788 24.6133 25.4999 23.3608C28.0041 23.599 30.1879 23.0594 32.0514 21.7419C32.4226 21.1082 32.3417 20.5685 31.8087 20.1229C31.9239 19.6004 31.7621 19.1957 31.3234 18.9088C31.3234 18.7739 31.3234 18.6389 31.3234 18.504C31.8067 18.4693 32.2111 18.6042 32.5367 18.9088C33.8955 17.7074 35.4323 16.7631 37.147 16.0756Z" fill="#1888ED"></path><path opacity="0.01" fill-rule="evenodd" clip-rule="evenodd" d="M38.603 22.5514C39.2501 22.8212 39.2501 22.8212 38.603 22.5514Z" fill="#1954D5"></path><path opacity="0.01" fill-rule="evenodd" clip-rule="evenodd" d="M38.1177 22.9561C38.2794 22.9561 38.4412 22.9561 38.603 22.9561C38.513 23.2273 38.3512 23.2273 38.1177 22.9561Z" fill="#164FD9"></path><path opacity="0.024" fill-rule="evenodd" clip-rule="evenodd" d="M9.48511 23.7656C10.353 23.3112 11.3236 23.2438 12.3969 23.5632C11.4395 23.7637 10.4689 23.8312 9.48511 23.7656Z" fill="#1EBDF6"></path><path opacity="0.996" fill-rule="evenodd" clip-rule="evenodd" d="M14.8235 18.504C15.6324 18.504 16.4412 18.504 17.25 18.504C17.25 19.8531 17.25 21.2023 17.25 22.5514C17.7605 22.6119 18.2458 22.5444 18.7059 22.349C18.067 21.1605 18.067 20.0137 18.7059 18.9088C18.7059 19.0437 18.7059 19.1786 18.7059 19.3135C18.8717 19.6527 19.1953 19.7877 19.6765 19.7182C20.5011 19.6534 21.3099 19.7209 22.103 19.9206C21.6429 20.116 21.1576 20.1835 20.6471 20.123C20.5241 20.8923 20.6858 21.1621 21.1324 20.9324C21.4559 20.9324 21.7794 20.9324 22.103 20.9324C22.103 21.2023 22.103 21.4721 22.103 21.7419C21.5327 21.6533 21.0474 21.7882 20.6471 22.1466C19.8861 23.1157 19.239 24.1275 18.7059 25.1821C18.2458 25.3775 17.7605 25.445 17.25 25.3845C17.25 24.8449 17.25 24.3052 17.25 23.7656C18.5441 23.6307 18.5441 23.4957 17.25 23.3608C16.023 23.9415 14.7289 24.3463 13.3677 24.575C13.3041 24.8741 13.385 25.1439 13.6103 25.3845C13.9338 24.8449 14.2573 24.8449 14.5809 25.3845C14.8062 25.1439 14.8871 24.8741 14.8235 24.575C16.9931 24.6448 17.1549 24.9821 15.3088 25.5869C15.8543 25.6877 16.3396 25.8901 16.7647 26.1939C15.5095 26.5906 14.2154 26.7255 12.8824 26.5987C12.5507 25.9201 11.9036 25.6503 10.9412 25.7892C10.9412 25.2496 10.9412 24.7099 10.9412 24.1703C11.5882 24.1703 12.2353 24.1703 12.8824 24.1703C12.8824 23.7656 12.8824 23.3608 12.8824 22.9561C11.4821 23.0801 10.188 22.9452 9 22.5514C10.3331 22.6782 11.6271 22.5433 12.8824 22.1466C11.0023 21.5385 11.1641 21.2687 13.3677 21.3372C14.0147 21.0673 14.0147 20.7975 13.3677 20.5277C13.3677 20.2579 13.2059 20.123 12.8824 20.123C12.8824 19.9881 12.8824 19.8531 12.8824 19.7182C13.5995 19.8243 14.2466 19.6894 14.8235 19.3135C12.9742 18.8126 12.9742 18.5428 14.8235 18.504ZM15.3088 21.7419C15.8194 21.6814 16.3047 21.7489 16.7647 21.9443C16.1985 22.1466 15.7941 22.4839 15.5515 22.9561C15.3172 22.5724 15.2363 22.1677 15.3088 21.7419ZM13.3677 24.575C13.8529 24.575 14.3382 24.575 14.8235 24.575C14.8871 24.8741 14.8062 25.1439 14.5809 25.3845C14.2573 24.8449 13.9338 24.8449 13.6103 25.3845C13.385 25.1439 13.3041 24.8741 13.3677 24.575Z" fill="#34B4F1"></path><path opacity="0.01" fill-rule="evenodd" clip-rule="evenodd" d="M37.147 23.3608C37.794 23.6306 37.794 23.6306 37.147 23.3608Z" fill="#008EFF"></path><path opacity="0.016" fill-rule="evenodd" clip-rule="evenodd" d="M36.6616 23.7656C36.8234 23.7656 36.9852 23.7656 37.1469 23.7656C37.057 24.0368 36.8952 24.0368 36.6616 23.7656Z" fill="#1057D4"></path><path opacity="0.996" fill-rule="evenodd" clip-rule="evenodd" d="M24.5292 17.6946C24.691 17.9644 24.8528 18.2342 25.0145 18.504C25.1763 18.504 25.3381 18.504 25.4998 18.504C25.4998 19.7182 25.4998 20.9324 25.4998 22.1466C27.1008 22.5012 28.7184 22.5687 30.3528 22.349C30.7801 22.0623 31.1036 21.7251 31.3234 21.3372C31.7621 21.0502 31.9238 20.6455 31.8087 20.123C32.3417 20.5685 32.4226 21.1082 32.0513 21.7419C30.1879 23.0594 28.004 23.5991 25.4998 23.3608C25.0145 23.3608 24.5292 23.3608 24.0439 23.3608C24.0213 24.6026 23.7786 25.8168 23.316 27.0034C21.4135 30.4412 20.3621 33.9489 20.1616 37.5265C19.3539 36.9401 18.9495 36.1306 18.9483 35.0981C18.714 35.4818 18.6331 35.8865 18.7057 36.3123C17.9297 36.2039 17.2826 36.3388 16.7645 36.717C16.2792 36.717 15.7939 36.717 15.3086 36.717C15.3086 37.2566 15.3086 37.7963 15.3086 38.3359C14.4998 38.3359 13.691 38.3359 12.8822 38.3359C12.8822 37.7963 12.8822 37.2566 12.8822 36.717C13.473 36.4493 14.12 36.1795 14.8233 35.9075C12.974 35.4067 12.974 35.1369 14.8233 35.0981C14.8233 34.6934 14.8233 34.2886 14.8233 33.8839C14.1763 33.8839 13.5292 33.8839 12.8822 33.8839C12.532 34.0529 12.2893 34.3227 12.1542 34.6934C11.9289 34.4528 11.848 34.1829 11.9116 33.8839C13.264 33.1939 13.1022 32.7217 11.4263 32.4673C12.0539 32.269 12.7009 32.2015 13.3674 32.265C13.3674 32.6697 13.3674 33.0744 13.3674 33.4792C14.1555 33.5358 14.7216 33.266 15.066 32.6697C15.3003 33.0534 15.3812 33.4581 15.3086 33.8839C16.2145 34.068 17.1042 34.3378 17.9778 34.6934C18.3821 34.6259 18.7866 34.5585 19.191 34.491C18.8259 34.2195 18.6641 33.8822 18.7057 33.4792C18.3821 32.9395 18.0586 32.9395 17.7351 33.4792C17.0629 32.8934 17.2247 32.4887 18.2204 32.265C18.9893 31.9081 19.7981 31.5708 20.6469 31.2531C20.377 31.0983 20.2153 30.8959 20.1616 30.646C19.9958 30.3068 19.6722 30.1718 19.191 30.2413C19.561 29.9305 20.0463 29.7281 20.6469 29.6342C20.536 29.4728 20.3742 29.4054 20.1616 29.4318C20.1616 29.162 19.9998 29.0271 19.6763 29.0271C19.0043 28.7024 19.0852 28.4326 19.9189 28.2176C20.2936 28.2762 20.6171 28.4111 20.8895 28.6224C21.1076 27.5571 21.512 26.5453 22.1028 25.5869C22.0688 25.2773 21.907 25.075 21.6175 24.9798C21.4557 24.4401 21.2939 24.4401 21.1322 24.9798C20.8686 24.9555 20.7069 24.8206 20.6469 24.575C21.0472 24.2166 21.5325 24.0817 22.1028 24.1703C22.4529 24.3393 22.6956 24.6091 22.8307 24.9798C23.6709 22.5398 24.2371 20.1114 24.5292 17.6946ZM15.3086 34.2886C16.2001 34.3451 16.3619 34.6149 15.7939 35.0981C15.4069 34.9132 15.2451 34.6433 15.3086 34.2886Z" fill="#269DEB"></path><path opacity="0.01" fill-rule="evenodd" clip-rule="evenodd" d="M9.97051 24.1703C10.5035 24.6159 10.5844 25.1555 10.2132 25.7892C9.97536 25.2658 9.89446 24.7261 9.97051 24.1703Z" fill="#2AC7F1"></path><path opacity="0.995" fill-rule="evenodd" clip-rule="evenodd" d="M22.1029 21.7419C22.2017 22.507 21.8781 23.1141 21.1323 23.5632C21.5767 23.6759 21.9003 23.8783 22.1029 24.1703C21.5327 24.0817 21.0474 24.2166 20.647 24.5751C20.707 24.8206 20.8687 24.9555 21.1323 24.9798C21.2941 24.9798 21.4559 24.9798 21.6176 24.9798C21.9072 25.075 22.069 25.2774 22.1029 25.5869C21.5121 26.5453 21.1077 27.5571 20.8897 28.6224C20.6173 28.4112 20.2937 28.2763 19.9191 28.2177C19.0853 28.4326 19.0044 28.7024 19.6764 29.0271C20 29.0271 20.1617 29.162 20.1617 29.4319C20.3744 29.4054 20.5362 29.4728 20.647 29.6342C20.0465 29.7282 19.5612 29.9305 19.1911 30.2413C19.357 30.5806 19.6805 30.7155 20.1617 30.6461C20.2154 30.8959 20.3772 31.0983 20.647 31.2532C19.7982 31.5708 18.9894 31.9081 18.2205 32.265C17.1878 31.9491 17.1069 31.5444 17.9779 31.0508C18.2199 29.5729 18.3008 28.0888 18.2205 26.5987C17.897 26.0591 17.5735 26.0591 17.2499 26.5987C17.0941 27.2253 16.6088 27.4951 15.7941 27.4082C15.3475 27.1785 15.1857 27.4483 15.3088 28.2177C15.4239 28.7402 15.2622 29.1449 14.8235 29.4319C14.6617 28.3526 14.4999 28.3526 14.3382 29.4319C14.1764 29.4319 14.0146 29.4319 13.8529 29.4319C13.9362 29.0305 13.7744 28.7607 13.3676 28.6224C12.9141 28.1903 12.7523 27.6506 12.8823 27.0035C12.8823 26.8686 12.8823 26.7336 12.8823 26.5987C14.2153 26.7256 15.5094 26.5906 16.7647 26.194C16.3395 25.8901 15.8542 25.6878 15.3088 25.5869C17.1549 24.9821 16.9931 24.6448 14.8235 24.5751C14.3382 24.5751 13.8529 24.5751 13.3676 24.5751C14.7288 24.3463 16.023 23.9416 17.2499 23.3609C17.2499 23.4958 17.2499 23.6307 17.2499 23.7656C17.2499 24.3052 17.2499 24.8449 17.2499 25.3845C17.7605 25.445 18.2458 25.3776 18.7058 25.1822C19.2389 24.1276 19.886 23.1158 20.647 22.1467C21.0474 21.7882 21.5327 21.6533 22.1029 21.7419ZM15.7941 27.4082C17.1327 28.0017 16.9709 28.2716 15.3088 28.2177C15.1857 27.4483 15.3475 27.1785 15.7941 27.4082Z" fill="#1EA5ED"></path><path opacity="0.996" fill-rule="evenodd" clip-rule="evenodd" d="M37.1468 25.3845C37.6003 25.8166 37.7621 26.3563 37.6321 27.0035C38.441 27.0035 39.2497 27.0035 40.0586 27.0035C40.5249 28.1877 40.8484 29.4019 41.0292 30.646C40.4227 30.6774 40.0183 30.9472 39.8159 31.4555C39.0612 30.6399 38.1715 30.505 37.1468 31.0508C37.2068 31.2963 37.3685 31.4312 37.6321 31.4555C37.7939 31.4555 37.9557 31.4555 38.1174 31.4555C38.32 31.7476 38.6436 31.9499 39.088 32.0626C38.3231 32.2405 37.676 32.5778 37.1468 33.0744C36.7598 32.8895 36.598 32.6197 36.6615 32.265C36.3752 31.7526 36.1326 31.213 35.9336 30.646C34.5248 30.8762 33.5542 31.5507 33.0218 32.6697C32.8195 32.1614 32.4151 31.8916 31.8086 31.8602C31.8086 31.7253 31.8086 31.5904 31.8086 31.4555C31.8086 31.3206 31.8086 31.1857 31.8086 31.0508C32.8981 30.2749 33.0599 29.3305 32.2939 28.2177C31.0798 28.1686 29.7856 28.1011 28.4115 28.0153C29.2203 27.8804 30.0291 27.7454 30.838 27.6106C29.717 27.4096 28.5847 27.3421 27.4409 27.4082C29.325 26.8097 31.1854 26.9446 33.0218 27.8129C33.8557 27.2664 34.7454 26.7943 35.6909 26.3964C35.5292 26.2615 35.3674 26.1265 35.2056 25.9916C35.9618 25.9066 36.6089 25.7043 37.1468 25.3845Z" fill="#1C78E9"></path><path opacity="0.024" fill-rule="evenodd" clip-rule="evenodd" d="M9.48511 26.5987C10.353 26.1444 11.3236 26.0769 12.3969 26.3963C11.4395 26.5969 10.4689 26.6643 9.48511 26.5987Z" fill="#13B4F3"></path><path opacity="0.01" fill-rule="evenodd" clip-rule="evenodd" d="M38.1177 26.5987C38.4819 26.1642 38.9672 26.0968 39.5736 26.3963C39.1135 26.5917 38.6282 26.6592 38.1177 26.5987Z" fill="#1895F7"></path><path opacity="0.01" fill-rule="evenodd" clip-rule="evenodd" d="M8.02941 27.0035C8.57736 27.8648 8.65826 28.8092 8.27206 29.8366C8.03106 28.9018 7.95016 27.9574 8.02941 27.0035Z" fill="#12B4F3"></path><path opacity="0.643" fill-rule="evenodd" clip-rule="evenodd" d="M17.25 26.5987C17.5736 26.5987 17.8971 26.5987 18.2206 26.5987C18.3008 28.0888 18.2199 29.5728 17.978 31.0508C17.107 31.5443 17.1878 31.9491 18.2206 32.265C17.2249 32.4886 17.0631 32.8934 17.7353 33.4791C18.0589 33.4791 18.3824 33.4791 18.7059 33.4791C18.6643 33.8822 18.8261 34.2195 19.1912 34.491C18.7868 34.5584 18.3824 34.6259 17.978 34.6933C17.1044 34.3378 16.2147 34.068 15.3088 33.8839C15.3814 33.4581 15.3005 33.0534 15.0662 32.6697C14.7218 33.266 14.1557 33.5358 13.3677 33.4791C13.3677 33.0744 13.3677 32.6697 13.3677 32.265C13.9379 32.3536 14.4232 32.2187 14.8235 31.8602C14.3898 31.8532 13.9045 31.7183 13.3677 31.4555C12.9141 31.0234 12.7524 30.4837 12.8824 29.8366C12.2353 29.8366 11.5882 29.8366 10.9412 29.8366C10.2941 29.8366 9.64704 29.8366 9 29.8366C9 28.8922 9 27.9478 9 27.0034C10.2941 27.0034 11.5882 27.0034 12.8824 27.0034C12.7524 27.6506 12.9141 28.1903 13.3677 28.6224C13.2844 29.0237 13.4462 29.2935 13.8529 29.4318C14.0147 29.4318 14.1765 29.4318 14.3382 29.4318C14.5 29.4318 14.6618 29.4318 14.8235 29.4318C15.2622 29.1449 15.424 28.7401 15.3088 28.2176C16.971 28.2715 17.1327 28.0017 15.7941 27.4082C16.6088 27.4951 17.0941 27.2253 17.25 26.5987ZM15.3088 28.2176C16.971 28.2715 17.1327 28.0017 15.7941 27.4082C15.3476 27.1785 15.1858 27.4483 15.3088 28.2176Z" fill="#21ABEE"></path><path opacity="0.012" fill-rule="evenodd" clip-rule="evenodd" d="M41.5146 32.6697C41.4348 31.448 41.5156 30.2339 41.7573 29.0271C42.1477 30.3208 42.0668 31.535 41.5146 32.6697Z" fill="#1470E7"></path><path opacity="0.784" fill-rule="evenodd" clip-rule="evenodd" d="M10.9412 29.8366C11.5882 29.8366 12.2353 29.8366 12.8824 29.8366C12.7524 30.4838 12.9141 31.0234 13.3677 31.4555C13.3677 31.7254 13.3677 31.9952 13.3677 32.265C12.7012 32.2016 12.0541 32.2691 11.4265 32.4674C13.1024 32.7217 13.2642 33.1939 11.9118 33.8839C11.8482 34.183 11.9291 34.4528 12.1544 34.6934C12.2895 34.3227 12.5322 34.0529 12.8824 33.8839C13.5294 33.8839 14.1765 33.8839 14.8235 33.8839C14.8235 34.2887 14.8235 34.6934 14.8235 35.0981C12.9742 35.1369 12.9742 35.4067 14.8235 35.9076C14.1202 36.1795 13.4732 36.4494 12.8824 36.7171C11.5882 36.7171 10.2941 36.7171 9 36.7171C9.05683 35.1996 9.38037 33.7156 9.97059 32.265C9.89814 31.5285 9.57464 30.9214 9 30.4437C9.46006 30.2483 9.94535 30.1808 10.4559 30.2413C10.376 31.463 10.4569 32.6772 10.6985 33.8839C10.9404 32.5415 11.0213 31.1924 10.9412 29.8366ZM11.9118 33.8839C11.8482 34.183 11.9291 34.4528 12.1544 34.6934C12.2895 34.3227 12.5322 34.0529 12.8824 33.8839C12.8824 34.2887 12.8824 34.6934 12.8824 35.0981C12.3971 35.0981 11.9118 35.0981 11.4265 35.0981C11.3113 34.5756 11.4731 34.1709 11.9118 33.8839Z" fill="#22B3EE"></path><path opacity="0.996" fill-rule="evenodd" clip-rule="evenodd" d="M25.4999 23.3608C26.0788 24.6133 25.7553 25.6926 24.5293 26.5986C24.5293 26.7335 24.5293 26.8685 24.5293 27.0034C24.5293 28.4874 24.5293 29.9714 24.5293 31.4554C26.9557 31.4554 29.3822 31.4554 31.8087 31.4554C31.8087 31.5903 31.8087 31.7253 31.8087 31.8602C29.9161 32.2365 27.975 32.3715 25.9852 32.2649C25.3381 32.2649 24.691 32.2649 24.044 32.2649C24.2 33.8816 23.3911 34.9609 21.6175 35.5028C21.6175 35.6377 21.6175 35.7726 21.6175 35.9075C21.8201 36.1995 22.1437 36.4019 22.5881 36.5146C22.0458 37.2804 21.237 37.6176 20.1616 37.5264C20.3621 33.9488 21.4136 30.4411 23.316 27.0034C23.7787 25.8168 24.0213 24.6026 24.044 23.3608C24.5293 23.3608 25.0146 23.3608 25.4999 23.3608Z" fill="#259AEC"></path><path opacity="0.997" fill-rule="evenodd" clip-rule="evenodd" d="M36.6616 32.265C35.0412 32.3125 33.5854 32.9196 32.294 34.0863C33.7714 34.2315 33.9331 34.5013 32.7793 34.8958C33.4263 35.0306 34.0734 35.1656 34.7205 35.3005C33.6315 35.3206 32.8226 35.6578 32.294 36.3123C31.8405 36.7444 31.6787 37.2841 31.8087 37.9312C30.3323 38.3526 28.8764 38.3526 27.441 37.9312C27.441 37.1218 27.441 36.3123 27.441 35.5028C27.5064 34.6714 27.1829 33.9969 26.4704 33.4792C26.3087 32.9396 26.1469 32.9396 25.9852 33.4792C25.4392 33.1361 25.4392 32.7313 25.9852 32.265C27.975 32.3716 29.9161 32.2366 31.8087 31.8603C32.4152 31.8916 32.8196 32.1614 33.0219 32.6697C33.5543 31.5507 34.5249 30.8762 35.9337 30.6461C36.1327 31.213 36.3754 31.7526 36.6616 32.265Z" fill="#137AE9"></path><path opacity="0.016" fill-rule="evenodd" clip-rule="evenodd" d="M41.0293 32.6697C41.191 32.6697 41.3528 32.6697 41.5146 32.6697C41.5979 33.0711 41.4361 33.3409 41.0293 33.4792C41.0293 33.2094 41.0293 32.9396 41.0293 32.6697Z" fill="#1163D8"></path><path opacity="0.997" fill-rule="evenodd" clip-rule="evenodd" d="M41.0293 30.6461C41.0293 31.3206 41.0293 31.9952 41.0293 32.6697C40.6225 32.808 40.4607 33.0779 40.544 33.4792C40.1372 33.6175 39.9754 33.8873 40.0587 34.2887C39.7352 34.2887 39.5734 34.4235 39.5734 34.6934C39.2499 34.6934 39.0881 34.8283 39.0881 35.0981C38.7646 35.0981 38.6028 35.233 38.6028 35.5028C38.1216 35.4334 37.7981 35.5683 37.6322 35.9076C37.3087 35.9076 36.9852 35.9076 36.6616 35.9076C35.3675 35.9076 34.0734 35.9076 32.7793 35.9076C32.7793 36.8519 32.7793 37.7963 32.7793 38.7407C32.3127 38.0265 32.151 37.2171 32.294 36.3123C32.8226 35.6578 33.6315 35.3206 34.7205 35.3005C34.0734 35.1656 33.4263 35.0306 32.7793 34.8957C33.9331 34.5013 33.7714 34.2315 32.294 34.0863C33.5854 32.9196 35.0412 32.3125 36.6616 32.265C36.5981 32.6197 36.7599 32.8895 37.1469 33.0745C37.6761 32.5778 38.3232 32.2405 39.0881 32.0626C38.6437 31.9499 38.3201 31.7476 38.1175 31.4555C37.9558 30.9159 37.794 30.9159 37.6322 31.4555C37.3687 31.4312 37.2069 31.2963 37.1469 31.0508C38.1716 30.505 39.0613 30.6399 39.8161 31.4555C40.0184 30.9472 40.4228 30.6774 41.0293 30.6461Z" fill="#1273E8"></path><path opacity="0.01" fill-rule="evenodd" clip-rule="evenodd" d="M40.5442 33.4792C40.7059 33.4792 40.8677 33.4792 41.0295 33.4792C41.1128 33.8805 40.951 34.1504 40.5442 34.2887C40.5442 34.0188 40.5442 33.749 40.5442 33.4792Z" fill="#1065BE"></path><path opacity="0.012" fill-rule="evenodd" clip-rule="evenodd" d="M40.0586 34.2887C40.2203 34.2887 40.3821 34.2887 40.5439 34.2887C40.454 34.5599 40.2922 34.5599 40.0586 34.2887Z" fill="#0D69DF"></path><path opacity="0.01" fill-rule="evenodd" clip-rule="evenodd" d="M39.5732 34.6934C39.735 34.6934 39.8968 34.6934 40.0585 34.6934C39.9686 34.9646 39.8068 34.9646 39.5732 34.6934Z" fill="#0473FF"></path><path opacity="0.01" fill-rule="evenodd" clip-rule="evenodd" d="M8.02941 33.8839C8.57736 34.7453 8.65826 35.6896 8.27206 36.717C8.03106 35.7822 7.95016 34.8378 8.02941 33.8839Z" fill="#17B8ED"></path><path opacity="0.01" fill-rule="evenodd" clip-rule="evenodd" d="M39.0881 35.0981C39.2499 35.0981 39.4117 35.0981 39.5734 35.0981C39.4835 35.3693 39.3217 35.3693 39.0881 35.0981Z" fill="#056FFF"></path><path opacity="0.012" fill-rule="evenodd" clip-rule="evenodd" d="M38.603 35.5028C38.7648 35.5028 38.9266 35.5028 39.0883 35.5028C38.9984 35.774 38.8366 35.774 38.603 35.5028Z" fill="#0A63EF"></path><path opacity="0.02" fill-rule="evenodd" clip-rule="evenodd" d="M37.6321 36.3123C37.6321 36.1774 37.6321 36.0424 37.6321 35.9075C37.9556 35.9075 38.2791 35.9075 38.6027 35.9075C38.4368 36.2468 38.1133 36.3817 37.6321 36.3123Z" fill="#177BED"></path><path opacity="0.014" fill-rule="evenodd" clip-rule="evenodd" d="M9 37.5265C10.0644 37.0016 11.1968 37.0016 12.3971 37.5265C11.401 37.6096 10.2687 37.6096 9 37.5265Z" fill="#159BD9"></path><path opacity="0.639" fill-rule="evenodd" clip-rule="evenodd" d="M25.9851 32.265C25.4392 32.7313 25.4392 33.136 25.9851 33.4792C26.1469 33.4792 26.3087 33.4792 26.4704 33.4792C27.1828 33.9968 27.5064 34.6714 27.441 35.5028C26.6322 35.5028 25.8234 35.5028 25.0145 35.5028C25.0145 36.0424 25.0145 36.5821 25.0145 37.1217C24.1998 37.0348 23.7145 37.3046 23.5587 37.9312C22.8583 38.2692 22.373 38.8088 22.1028 39.5501C21.4835 37.4529 21.16 37.4529 21.1322 39.5501C20.01 40.3058 18.7159 40.5082 17.2498 40.1572C18.2204 40.0223 19.191 39.8874 20.1616 39.7525C19.0407 39.5515 17.9083 39.484 16.7645 39.5501C16.8423 38.8624 16.7614 38.1879 16.5219 37.5265C16.2523 38.3744 16.0096 38.4419 15.7939 37.7288C16.0636 37.3196 16.3871 36.9824 16.7645 36.717C17.2826 36.3388 17.9297 36.2039 18.7057 36.3123C18.6332 35.8865 18.7141 35.4818 18.9484 35.0981C18.9495 36.1306 19.3539 36.9401 20.1616 37.5265C21.237 37.6177 22.0458 37.2804 22.5881 36.5146C22.1436 36.402 21.8201 36.1996 21.6175 35.9075C22.9116 35.7727 22.9116 35.6377 21.6175 35.5028C23.3911 34.9609 24.1999 33.8816 24.044 32.265C24.691 32.265 25.3381 32.265 25.9851 32.265Z" fill="#1B8BEA"></path><path opacity="0.01" fill-rule="evenodd" clip-rule="evenodd" d="M13.3677 39.1454C13.7319 38.711 14.2172 38.6435 14.8236 38.9431C14.3635 39.1385 13.8782 39.206 13.3677 39.1454Z" fill="#1C8BDB"></path><path opacity="0.659" fill-rule="evenodd" clip-rule="evenodd" d="M36.6617 35.9075C36.8275 36.2468 37.151 36.3817 37.6322 36.3123C38.3447 36.83 38.6682 37.5045 38.6028 38.3359C37.6482 38.239 36.7585 38.3739 35.9337 38.7407C35.406 37.7565 35.1633 37.8914 35.2058 39.1454C35.6911 39.1454 36.1764 39.1454 36.6617 39.1454C37.0502 39.7694 37.212 40.444 37.147 41.1691C35.6693 41.1659 34.2134 41.0309 32.7793 40.7643C32.7793 40.2247 32.7793 39.685 32.7793 39.1454C32.7793 39.0105 32.7793 38.8756 32.7793 38.7407C32.7793 37.7963 32.7793 36.8519 32.7793 35.9075C34.0734 35.9075 35.3675 35.9075 36.6617 35.9075Z" fill="#1B6DEB"></path><path opacity="0.01" fill-rule="evenodd" clip-rule="evenodd" d="M36.6616 39.1454C37.1959 38.7008 37.843 38.6334 38.6028 38.943C37.9752 39.1413 37.3281 39.2088 36.6616 39.1454Z" fill="#0D76F2"></path><path opacity="0.396" fill-rule="evenodd" clip-rule="evenodd" d="M27.4409 35.5028C27.4409 36.3123 27.4409 37.1217 27.4409 37.9312C28.8763 38.3526 30.3322 38.3526 31.8086 37.9312C31.6786 37.284 31.8404 36.7444 32.2939 36.3123C32.1508 37.217 32.3126 38.0265 32.7792 38.7407C32.7792 38.8756 32.7792 39.0105 32.7792 39.1454C32.3958 39.594 32.1531 40.1337 32.0512 40.7643C31.8895 40.0898 31.7277 39.4152 31.5659 38.7407C31.5217 41.0391 30.1466 41.7811 27.4409 40.9667C28.4115 40.8318 29.3821 40.6969 30.3527 40.562C29.2317 40.361 28.0994 40.2935 26.9556 40.3596C26.9556 39.685 26.9556 39.0105 26.9556 38.3359C26.4703 38.3359 25.985 38.3359 25.4997 38.3359C25.4997 38.8756 25.4997 39.4152 25.4997 39.9549C23.9404 40.0803 22.4845 39.9454 21.1321 39.5501C21.1599 37.4529 21.4834 37.4529 22.1027 39.5501C22.3729 38.8088 22.8582 38.2692 23.5586 37.9312C23.9939 37.4868 24.3983 37.4868 24.7718 37.9312C24.9971 37.6906 25.078 37.4208 25.0144 37.1217C25.0144 36.5821 25.0144 36.0424 25.0144 35.5028C25.8233 35.5028 26.6321 35.5028 27.4409 35.5028Z" fill="#2173EA"></path><path opacity="0.02" fill-rule="evenodd" clip-rule="evenodd" d="M25.9852 38.7407C26.5062 39.0445 26.587 39.4492 26.2278 39.9549C25.9935 39.5712 25.9126 39.1664 25.9852 38.7407Z" fill="#0A65EF"></path><path opacity="0.01" fill-rule="evenodd" clip-rule="evenodd" d="M37.6321 39.5501C38.1651 39.9957 38.246 40.5354 37.8748 41.169C37.637 40.6456 37.5561 40.106 37.6321 39.5501Z" fill="#1A72E6"></path><path opacity="0.01" fill-rule="evenodd" clip-rule="evenodd" d="M22.103 40.7644C22.9709 40.3101 23.9415 40.2427 25.0148 40.562C24.0575 40.7626 23.0869 40.83 22.103 40.7644Z" fill="#277FE3"></path><path opacity="0.01" fill-rule="evenodd" clip-rule="evenodd" d="M33.2649 41.1691C33.9119 41.4389 33.9119 41.4389 33.2649 41.1691Z" fill="#0073FF"></path><path opacity="0.016" fill-rule="evenodd" clip-rule="evenodd" d="M35.2056 41.9785C35.5698 41.544 36.0551 41.4766 36.6615 41.7761C36.2014 41.9716 35.7161 42.039 35.2056 41.9785Z" fill="#196CE8"></path></svg>