<svg xmlns="http://www.w3.org/2000/svg" width="50" height="50" viewBox="0 0 50 50" fill="none"><rect width="50" height="50" rx="10" fill="#FF6F00" fill-opacity="0.2"></rect><path d="M37.2778 42H12.7222C10.1146 42 8 39.8854 8 37.2778V12.7222C8 10.1146 10.1146 8 12.7222 8H37.2778C39.8854 8 42 10.1146 42 12.7222V37.2778C42 39.8854 39.8854 42 37.2778 42Z" fill="#FF6F00"></path><path d="M33.9723 23.1111H33.0279C32.2459 23.1111 31.6112 22.4764 31.6112 21.6944V21.2222C31.6112 17.571 28.6513 14.6111 25.0001 14.6111H21.2223C17.5711 14.6111 14.6112 17.571 14.6112 21.2222V28.7778C14.6112 32.429 17.5711 35.3889 21.2223 35.3889H28.7779C32.4291 35.3889 35.389 32.429 35.389 28.7778V24.5278C35.389 23.7458 34.7543 23.1111 33.9723 23.1111ZM21.2223 20.2778H25.9445C26.4668 20.2778 26.889 20.7009 26.889 21.2222C26.889 21.7435 26.4668 22.1666 25.9445 22.1666H21.2223C20.7 22.1666 20.2779 21.7435 20.2779 21.2222C20.2779 20.7009 20.7 20.2778 21.2223 20.2778ZM28.7779 29.7222H21.2223C20.7 29.7222 20.2779 29.2991 20.2779 28.7778C20.2779 28.2564 20.7 27.8333 21.2223 27.8333H28.7779C29.3002 27.8333 29.7223 28.2564 29.7223 28.7778C29.7223 29.2991 29.3002 29.7222 28.7779 29.7222Z" fill="white"></path></svg>