<svg xmlns="http://www.w3.org/2000/svg" width="50" height="50" viewBox="0 0 50 50" fill="none"><rect width="50" height="50" rx="10" fill="#C84420" fill-opacity="0.2"></rect><path d="M19.0894 10C21.8944 10 24.6994 10 27.5894 10C27.5894 10.7012 27.5894 11.4025 27.5894 12.125C27.8395 12.1176 28.0896 12.1102 28.3472 12.1025C29.4817 12.073 30.6161 12.0546 31.7509 12.0365C32.3412 12.0187 32.3412 12.0187 32.9434 12.0005C33.3223 11.9959 33.7013 11.9914 34.0917 11.9867C34.4404 11.9792 34.7891 11.9718 35.1483 11.9642C36.0894 12.125 36.0894 12.125 36.9099 12.6218C37.8312 14.0432 37.7128 15.4038 37.7094 17.064C37.7145 17.4062 37.7195 17.7484 37.7246 18.1009C37.7395 19.1932 37.7449 20.2853 37.7496 21.3776C37.7598 22.4724 37.7721 23.5671 37.7859 24.6618C37.7938 25.3429 37.7994 26.024 37.8025 26.7052C37.8062 27.1662 37.8062 27.1662 37.81 27.6366C37.8112 27.9076 37.8125 28.1785 37.8137 28.4577C37.8196 29.157 37.8196 29.157 38.2144 29.8333C38.2488 30.5262 38.2604 31.2203 38.2587 31.9141C38.2601 32.4715 38.2601 32.4715 38.2614 33.0402C38.2144 34.0833 38.2144 34.0833 37.9571 34.8498C37.9251 35.0643 37.8932 35.2789 37.8602 35.5C38.3763 36.164 38.3763 36.164 39.0998 36.7396C39.8192 37.3483 39.8192 37.3483 40.3394 37.9792C40.2398 38.765 40.2398 38.765 39.9852 39.3958C39.3544 39.6504 39.3544 39.6504 38.5686 39.75C37.8552 39.1617 37.3168 38.496 36.7203 37.791C36.5121 37.6194 36.3039 37.4477 36.0894 37.2708C35.4053 37.3464 35.4053 37.3464 34.6727 37.625C30.6608 37.9658 30.6608 37.9658 29.1389 37.0052C28.3528 36.2605 28.0294 35.7525 27.5894 34.7917C27.3639 34.7925 27.1384 34.7932 26.9061 34.794C24.568 34.8019 22.2299 34.8072 19.8917 34.8111C19.0181 34.8129 18.1444 34.8153 17.2708 34.8184C16.0181 34.8227 14.7654 34.8247 13.5127 34.8263C13.1194 34.8281 12.7261 34.8299 12.321 34.8318C11.7786 34.8318 11.7786 34.8318 11.2252 34.8319C10.7451 34.8331 10.7451 34.8331 10.2552 34.8343C9.52691 34.7917 9.52691 34.7917 9.17274 34.4375C9.1321 33.7931 9.1162 33.1472 9.11006 32.5016C9.10551 32.0879 9.10096 31.6741 9.09628 31.2478C9.09366 30.797 9.09105 30.3462 9.08835 29.8818C9.08549 29.4218 9.08264 28.9619 9.07969 28.488C9.07436 27.5123 9.07088 26.5366 9.06821 25.5609C9.06429 24.3116 9.05211 23.0624 9.03804 21.8131C9.02655 20.6216 9.02496 19.4301 9.02195 18.2385C9.01575 17.7899 9.00954 17.3412 9.00316 16.879C9.00419 16.4619 9.00523 16.0448 9.0063 15.615C9.00422 15.248 9.00214 14.881 9 14.5029C9.21798 13.2899 9.62818 12.8729 10.5894 12.125C11.5305 11.9642 11.5305 11.9642 12.5871 11.9867C12.9661 11.9912 13.345 11.9958 13.7354 12.0005C14.1289 12.0124 14.5225 12.0242 14.928 12.0365C15.327 12.0428 15.726 12.0492 16.1371 12.0558C17.1215 12.0725 18.1053 12.0958 19.0894 12.125C19.0894 11.4237 19.0894 10.7225 19.0894 10Z" fill="#EF5B32"></path><path d="M9.17263 22.75C9.47152 22.8562 9.77041 22.9623 10.0784 23.0717C18.9171 25.8742 28.7527 25.8213 37.506 22.75C37.5274 23.202 37.5489 23.654 37.571 24.1196C37.6009 24.7108 37.6309 25.302 37.6609 25.8932C37.6748 26.1914 37.6888 26.4895 37.7031 26.7966C37.7179 27.082 37.7328 27.3673 37.7481 27.6613C37.761 27.9247 37.774 28.188 37.7874 28.4594C37.8246 29.1564 37.8246 29.1564 38.2143 29.8333C38.2486 30.5262 38.2603 31.2203 38.2586 31.9141C38.2599 32.4715 38.2599 32.4715 38.2613 33.0402C38.2143 34.0833 38.2143 34.0833 37.957 34.8498C37.925 35.0643 37.8931 35.2789 37.8601 35.5C38.3762 36.164 38.3762 36.164 39.0997 36.7396C39.8191 37.3483 39.8191 37.3483 40.3393 37.9792C40.2397 38.765 40.2397 38.765 39.9851 39.3958C39.3543 39.6504 39.3543 39.6504 38.5685 39.75C37.855 39.1617 37.3167 38.496 36.7202 37.791C36.4079 37.5335 36.4079 37.5335 36.0893 37.2708C35.4051 37.3464 35.4051 37.3464 34.6726 37.625C30.6607 37.9658 30.6607 37.9658 29.1388 37.0052C28.3527 36.2605 28.0293 35.7525 27.5893 34.7917C27.3638 34.7925 27.1383 34.7932 26.906 34.794C24.5678 34.8019 22.2297 34.8072 19.8916 34.8111C19.018 34.8129 18.1443 34.8153 17.2706 34.8184C16.0179 34.8227 14.7653 34.8247 13.5126 34.8263C13.1193 34.8281 12.726 34.8299 12.3208 34.8318C11.7784 34.8318 11.7784 34.8318 11.2251 34.8319C10.7449 34.8331 10.7449 34.8331 10.2551 34.8343C9.5268 34.7917 9.5268 34.7917 9.17263 34.4375C9.14131 33.5704 9.1318 32.7133 9.13804 31.8463C9.13854 31.5874 9.13904 31.3284 9.13956 31.0617C9.14155 30.2316 9.146 29.4016 9.15049 28.5716C9.15227 28.0102 9.15388 27.4487 9.15534 26.8872C9.15925 25.5082 9.16537 24.1291 9.17263 22.75Z" fill="#C84420"></path><path d="M33.9643 26.2917C35.8298 26.9135 37.3215 28.0663 38.2143 29.8333C38.4433 31.4998 38.5085 33.2378 37.95 34.8429C37.9204 35.0597 37.8907 35.2766 37.8601 35.5C38.3762 36.164 38.3762 36.164 39.0997 36.7396C39.8191 37.3483 39.8191 37.3483 40.3393 37.9792C40.2397 38.765 40.2397 38.765 39.9851 39.3958C39.3542 39.6504 39.3542 39.6504 38.5684 39.75C37.855 39.1618 37.3167 38.496 36.7201 37.791C36.512 37.6194 36.3038 37.4477 36.0893 37.2708C35.4051 37.3464 35.4051 37.3464 34.6726 37.625C32.6879 37.7936 30.9829 37.8904 29.1609 37.0274C27.595 35.5418 26.8411 34.0051 26.7703 31.8477C26.7916 30.208 27.2118 29.3244 28.2976 28.0625C30.2178 26.3709 31.4512 26.0663 33.9643 26.2917Z" fill="#8AEEFC"></path><path d="M19.0894 10C21.8944 10 24.6994 10 27.5894 10C27.5894 10.7012 27.5894 11.4025 27.5894 12.125C24.7844 12.125 21.9794 12.125 19.0894 12.125C19.0894 11.4237 19.0894 10.7225 19.0894 10Z" fill="#DD5029"></path><path d="M37.1519 35.1458C37.5506 35.4849 37.949 35.8244 38.3472 36.164C38.5691 36.3531 38.791 36.5421 39.0196 36.7368C39.4747 37.1342 39.9122 37.5519 40.3394 37.9791C40.2066 38.7318 40.2066 38.7318 39.9852 39.3958C39.371 39.6601 39.371 39.6601 38.5686 39.75C37.8104 39.1648 37.8104 39.1648 37.0634 38.3554C36.8132 38.0893 36.563 37.8231 36.3052 37.5489C36.1171 37.3402 35.929 37.1316 35.7352 36.9166C36.2027 36.3323 36.6702 35.7479 37.1519 35.1458Z" fill="#199AE1"></path><path d="M21.9226 20.625C22.8576 20.625 23.7926 20.625 24.7559 20.625C24.7559 21.56 24.7559 22.495 24.7559 23.4583C23.8209 23.4583 22.8859 23.4583 21.9226 23.4583C21.9226 22.5233 21.9226 21.5883 21.9226 20.625Z" fill="#F5E9A3"></path><path d="M37.1519 35.1458C37.5025 35.3796 37.8531 35.6133 38.2144 35.8541C37.9806 36.3216 37.7469 36.7891 37.506 37.2708C37.0385 37.2708 36.571 37.2708 36.0894 37.2708C36.0894 36.2083 36.0894 36.2083 36.6206 35.6107C36.8836 35.3806 36.8836 35.3806 37.1519 35.1458Z" fill="#2FB6E4"></path></svg>