<svg xmlns="http://www.w3.org/2000/svg" width="50" height="50" viewBox="0 0 50 50" fill="none"><rect width="50" height="50" rx="10" fill="#4FE5FE" fill-opacity="0.2"></rect><path d="M18.7712 8.07771C23.3548 8.12254 26.5093 8.67535 30.0027 11.5973C32.9123 14.5114 35.296 17.1777 35.5528 21.3033C35.4889 21.7918 35.425 22.2803 35.3591 22.7835C35.1616 24.1361 35.1616 24.1361 36.1511 25.2373C36.6148 25.7192 36.6148 25.7192 37.0878 26.2108C37.5605 27.5658 37.6088 28.5749 37.6181 29.998C37.6244 30.437 37.6308 30.876 37.6373 31.3283C37.5325 32.6351 37.2181 33.5645 36.6412 34.7455C37.0333 35.0953 37.4253 35.4452 37.8292 35.8057C38.3359 36.2699 38.8424 36.7344 39.3485 37.1992C39.6079 37.4292 39.8672 37.6591 40.1344 37.896C40.8714 38.5794 40.8714 38.5794 42 39.8663C41.8473 40.8002 41.8473 40.8002 41.5534 41.5733C40.8068 41.9183 40.8068 41.9183 39.7672 42C38.6159 41.1082 38.6159 41.1082 37.4227 39.893C37.0244 39.4931 36.626 39.0932 36.2156 38.6811C35.7632 38.2116 35.7632 38.2116 35.3016 37.7326C35.2371 38.2167 35.1726 38.7008 35.1062 39.1995C34.855 40.7198 34.855 40.7198 34.4084 41.1465C33.6023 41.1888 32.7945 41.2011 31.9872 41.2017C31.4701 41.2031 30.9531 41.2044 30.4203 41.2058C29.5761 41.2045 29.5761 41.2045 28.7148 41.2032C28.1416 41.2036 27.5684 41.204 26.9778 41.2044C25.763 41.2051 24.5481 41.2042 23.3333 41.2022C21.773 41.1997 20.2127 41.2011 18.6524 41.2037C17.1687 41.2056 15.6851 41.2043 14.2015 41.2032C13.6386 41.2041 13.0758 41.2049 12.4959 41.2058C11.9788 41.2045 11.4617 41.2031 10.929 41.2017C10.4712 41.2014 10.0134 41.2011 9.54177 41.2007C8.50778 41.1465 8.50778 41.1465 8.06122 40.7198C8.01669 39.7404 8.00406 38.7596 8.00344 37.7793C8.00265 37.4719 8.00187 37.1646 8.00106 36.8479C7.99909 35.827 8.0004 34.8062 8.00191 33.7853C8.00161 33.079 8.00118 32.3726 8.00061 31.6662C7.99996 30.1839 8.00092 28.7016 8.003 27.2193C8.00554 25.3149 8.00408 23.4106 8.0014 21.5062C7.99979 20.0471 8.0003 18.5879 8.00146 17.1287C8.00176 16.4263 8.00139 15.724 8.00035 15.0216C7.99923 14.0417 8.00094 13.0617 8.00344 12.0818C8.00379 11.523 8.00415 10.9643 8.00451 10.3886C8.14628 7.2704 16.1064 8.11429 18.7712 8.07771Z" fill="#4FE5FE"></path><path d="M34.6038 23.7303C36.1821 24.809 36.9791 25.6671 37.5344 27.4909C37.8107 30.2671 37.9504 32.4133 36.1947 34.7454C34.2176 36.5508 32.5643 37.711 29.7684 37.7459C27.2895 37.6041 25.5815 37.2375 23.6909 35.5989C21.9505 33.649 21.1016 31.8839 21.2697 29.2996C21.7014 27.1106 22.6661 25.4831 24.3049 23.917C27.6406 21.9438 31.1721 21.8581 34.6038 23.7303Z" fill="#91F4FD"></path><path d="M11.6338 12.1285C13.9916 12.1285 16.3495 12.1285 18.7788 12.1285C18.7788 14.3816 18.7788 16.6348 18.7788 18.9563C16.4209 18.9563 14.0631 18.9563 11.6338 18.9563C11.6338 16.7031 11.6338 14.4499 11.6338 12.1285Z" fill="#057093"></path><path d="M25.0304 8.71454C27.3676 10.582 29.5535 12.5447 31.7009 14.6088C32.0063 14.899 32.3117 15.1892 32.6263 15.4881C32.9144 15.764 33.2026 16.0399 33.4994 16.3241C33.7601 16.5737 34.0209 16.8234 34.2895 17.0806C34.8548 17.676 34.8548 17.676 34.8548 18.1027C33.3849 18.1274 31.915 18.1427 30.445 18.1561C29.8172 18.1668 29.8172 18.1668 29.1768 18.1777C28.5767 18.1819 28.5767 18.1819 27.9645 18.1861C27.595 18.1905 27.2255 18.195 26.8448 18.1996C25.9235 18.1027 25.9235 18.1027 25.0304 17.2493C24.929 16.3689 24.929 16.3689 24.9432 15.2989C24.9461 14.9166 24.9489 14.5343 24.9519 14.1404C24.9594 13.7405 24.9669 13.3406 24.9746 12.9286C24.9786 12.5253 24.9826 12.1221 24.9868 11.7067C24.9973 10.7092 25.012 9.71192 25.0304 8.71454Z" fill="#2C7ED4"></path><path d="M32.1095 32.1418C32.8456 32.6118 32.8456 32.6118 33.962 33.4653C33.5534 34.4416 33.223 35.059 32.3432 35.7057C30.5025 36.2611 28.6439 36.4587 26.8833 35.6423C26.1472 35.1723 26.1472 35.1723 25.0308 34.3188C25.4394 33.3425 25.7698 32.7251 26.6496 32.0784C28.4902 31.523 30.3488 31.3254 32.1095 32.1418Z" fill="#097496"></path><path d="M11.6338 22.3701C16.7916 22.3701 21.9494 22.3701 27.2635 22.3701C25.0377 23.9653 24.3811 24.13 21.664 24.1187C21.0826 24.1174 20.5012 24.116 19.9022 24.1146C19.2858 24.111 18.6695 24.1074 18.0531 24.1037C17.4333 24.1016 16.8135 24.0996 16.1936 24.0979C14.6737 24.0929 13.1537 24.0858 11.6338 24.0771C11.6338 23.5138 11.6338 22.9505 11.6338 22.3701Z" fill="#067092"></path><path d="M35.7481 34.7455C37.451 35.4238 38.594 36.4557 39.9068 37.6793C40.3103 38.0479 40.7138 38.4164 41.1296 38.7961C42 39.8663 42 39.8663 41.9076 40.8565C41.5535 41.5733 41.5535 41.5733 40.8191 41.9267C39.7672 42 39.7672 42 38.5339 41.0598C38.0926 40.6319 37.6572 40.1982 37.2274 39.7596C37.0049 39.5445 36.7824 39.3295 36.5532 39.1079C35.5255 38.0925 34.8813 37.3812 34.4084 36.0257C34.8505 35.6032 35.2926 35.1808 35.7481 34.7455Z" fill="#199AE1"></path><path d="M31.2825 25.3573C31.5772 25.639 31.872 25.9206 32.1756 26.2108C32.0919 27.7044 32.0919 27.7044 31.7291 29.198C30.2905 30.1144 29.8269 30.2909 28.1566 30.0514C27.1359 29.1434 26.8512 28.5689 26.6494 27.251C26.8169 26.2108 26.8169 26.2108 27.2913 25.4107C28.68 24.6402 29.772 25.0161 31.2825 25.3573Z" fill="#0C7698"></path><path d="M11.6338 35.1722C13.606 35.1227 15.5781 35.0923 17.5507 35.0656C18.3909 35.0441 18.3909 35.0441 19.248 35.0222C19.7863 35.0167 20.3245 35.0112 20.879 35.0055C21.3748 34.9966 21.8706 34.9877 22.3814 34.9785C23.691 35.1722 23.691 35.1722 25.4772 36.8792C20.9089 36.8792 16.3406 36.8792 11.6338 36.8792C11.6338 36.3159 11.6338 35.7526 11.6338 35.1722Z" fill="#057092"></path><path d="M11.6338 26.6375C15.1706 26.6375 18.7073 26.6375 22.3513 26.6375C22.2039 27.2007 22.0566 27.764 21.9047 28.3444C18.5153 28.3444 15.1259 28.3444 11.6338 28.3444C11.6338 27.7811 11.6338 27.2178 11.6338 26.6375Z" fill="#067193"></path><path d="M11.6338 30.9049C14.8758 30.9049 18.1179 30.9049 21.4582 30.9049C21.6055 31.4682 21.7529 32.0315 21.9047 32.6119C18.5153 32.6119 15.1259 32.6119 11.6338 32.6119C11.6338 32.0486 11.6338 31.4853 11.6338 30.9049Z" fill="#057092"></path><path d="M33.9618 36.0257C34.2565 36.1665 34.5513 36.3073 34.8549 36.4524C34.8549 36.7341 34.8549 37.0157 34.8549 37.3059C32.1239 38.4244 29.7514 39.2302 26.7906 38.2961C26.0421 37.9938 25.3108 37.6532 24.584 37.3059C25.0261 37.0243 25.4682 36.7426 25.9237 36.4524C26.2368 36.5845 26.55 36.7165 26.8726 36.8525C28.6893 37.4941 30.3033 37.276 32.1756 36.8792C32.6513 36.6448 32.6513 36.6448 33.1367 36.4058C33.409 36.2803 33.6813 36.1549 33.9618 36.0257Z" fill="#4FD6ED"></path><path d="M35.7481 34.7455C36.3376 35.0271 36.9271 35.3088 37.5344 35.599C37.2397 36.1622 36.9449 36.7255 36.6413 37.3059C36.0518 37.3059 35.4623 37.3059 34.855 37.3059C34.7076 36.8834 34.5603 36.461 34.4084 36.0257C34.8505 35.6032 35.2926 35.1808 35.7481 34.7455Z" fill="#2FB7E8"></path></svg>