<svg xmlns="http://www.w3.org/2000/svg" width="50" height="50" viewBox="0 0 50 50" fill="none"><rect width="50" height="50" rx="10" fill="#6DEAFA" fill-opacity="0.2"></rect><path opacity="0.805" fill-rule="evenodd" clip-rule="evenodd" d="M30.3125 8C32.6145 8 34.9167 8 37.2187 8C38.0614 9.15306 38.7698 10.3926 39.3437 11.7188C39.6993 13.9372 38.9024 14.6456 36.9531 13.8438C36.6928 13.1567 36.6042 12.4484 36.6875 11.7188C37.3284 10.9854 37.1513 10.3656 36.1562 9.85938C33.9731 9.25203 32.0251 9.6062 30.3125 10.9219C30.6079 11.1251 30.7849 11.3907 30.8437 11.7188C31.1993 13.9372 30.4024 14.6456 28.4531 13.8438C28.1928 13.1567 28.1042 12.4484 28.1875 11.7188C28.1875 11.5417 28.1875 11.3646 28.1875 11.1875C28.8888 10.1446 29.5972 9.08207 30.3125 8ZM36.6875 11.7188C34.7395 11.7188 32.7917 11.7188 30.8437 11.7188C30.7849 11.3907 30.6079 11.1251 30.3125 10.9219C32.0251 9.6062 33.9731 9.25203 36.1562 9.85938C37.1513 10.3656 37.3284 10.9854 36.6875 11.7188Z" fill="#D477E6"></path><path fill-rule="evenodd" clip-rule="evenodd" d="M28.1873 11.1875C28.1873 11.3645 28.1873 11.5416 28.1873 11.7187C27.2356 11.6475 26.3502 11.8246 25.5311 12.25C21.1595 12.1784 17.5293 13.7722 14.6405 17.0312C14.384 16.5276 14.2954 15.9963 14.3748 15.4375C18.3086 12.0022 22.9128 10.5856 28.1873 11.1875Z" fill="#FFA784"></path><path opacity="0.885" fill-rule="evenodd" clip-rule="evenodd" d="M25.5311 12.25C25.5311 12.7813 25.5311 13.3125 25.5311 13.8438C22.4311 14.0195 19.7749 15.1706 17.5623 17.2969C19.7608 17.1808 20.4691 18.0663 19.6873 19.9532C17.293 20.7921 14.9024 21.0577 12.5154 20.75C11.9192 18.3054 11.6536 15.8263 11.7186 13.3125C13.5512 12.9175 14.4366 13.6258 14.3748 15.4375C14.2954 15.9964 14.384 16.5277 14.6404 17.0313C17.5293 13.7722 21.1595 12.1785 25.5311 12.25Z" fill="#FF8657"></path><path opacity="0.948" fill-rule="evenodd" clip-rule="evenodd" d="M28.1874 11.7187C28.1041 12.4484 28.1927 13.1567 28.453 13.8437C30.4023 14.6456 31.1992 13.9372 30.8436 11.7187C32.7915 11.7187 34.7394 11.7187 36.6874 11.7187C36.6041 12.4484 36.6927 13.1567 36.953 13.8437C38.9023 14.6456 39.6992 13.9372 39.3436 11.7187C40.2953 11.6475 41.1808 11.8246 41.9998 12.25C41.9998 15.9687 41.9998 19.6875 41.9998 23.4062C36.7283 24.0119 31.4158 24.1004 26.0624 23.6719C25.5436 20.4441 25.3666 17.1681 25.5311 13.8437C25.5311 13.3125 25.5311 12.7812 25.5311 12.25C26.3502 11.8246 27.2356 11.6475 28.1874 11.7187Z" fill="#6E72E5"></path><path fill-rule="evenodd" clip-rule="evenodd" d="M27.125 16.5C31.7292 16.5 36.3333 16.5 40.9375 16.5C40.9375 17.0312 40.9375 17.5625 40.9375 18.0938C39.9646 18.8879 38.8136 19.2421 37.4844 19.1562C34.222 18.8507 30.9459 18.7622 27.6563 18.8906C27.1887 18.1702 27.0116 17.3733 27.125 16.5Z" fill="#E681F9"></path><path fill-rule="evenodd" clip-rule="evenodd" d="M27.1249 16.5C27.0115 17.3733 27.1885 18.1702 27.6561 18.8906C30.9458 18.7622 34.2218 18.8507 37.4842 19.1562C38.8134 19.2421 39.9645 18.8879 40.9374 18.0938C41.0736 19.3116 40.8965 20.4627 40.4061 21.5469C35.9684 21.9887 31.5414 21.9002 27.1249 21.2812C26.4434 19.616 26.4434 18.0222 27.1249 16.5Z" fill="#C975E2"></path><path opacity="0.975" fill-rule="evenodd" clip-rule="evenodd" d="M22.875 35.625C22.875 36.6875 22.875 37.75 22.875 38.8125C23.5833 39.875 23.5833 40.9375 22.875 42C17.9167 42 12.9583 42 8 42C8 39.3438 8 36.6875 8 34.0312C8.45949 31.107 8.81366 28.0967 9.0625 25C13.3125 25 17.5625 25 21.8125 25C22.2249 28.5319 22.5791 32.0736 22.875 35.625Z" fill="#6DEAFA"></path><path opacity="0.911" fill-rule="evenodd" clip-rule="evenodd" d="M22.875 38.8125C22.875 37.75 22.875 36.6875 22.875 35.625C26.5798 36.2678 29.7673 35.2938 32.4375 32.7031C30.5306 32.8574 29.7337 32.0605 30.0469 30.3125C32.4641 29.2002 34.9432 28.846 37.4844 29.25C38.1452 31.523 38.3222 33.8251 38.0156 36.1562C36.1287 36.938 35.2433 36.2297 35.3594 34.0312C32.0392 37.7633 27.8777 39.3571 22.875 38.8125Z" fill="#F98152"></path><path fill-rule="evenodd" clip-rule="evenodd" d="M11.1875 27.125C12.1227 28.8253 12.5654 30.7732 12.5157 32.9687C14.4216 35.0367 16.3696 35.0367 18.3594 32.9687C18.6243 31.0288 18.7128 29.0809 18.625 27.125C19.2492 27.0086 19.7805 27.1857 20.2188 27.6562C19.8184 29.3971 19.5527 31.168 19.4219 32.9687C17.0976 35.562 14.6184 35.7391 11.9844 33.5C11.2653 31.4479 10.9996 29.3229 11.1875 27.125Z" fill="#EFEEE6"></path></svg>