 <svg xmlns="http://www.w3.org/2000/svg" width="50" height="50" viewBox="0 0 50 50" fill="none"><rect width="50" height="50" rx="10" fill="#919AA1" fill-opacity="0.2"></rect><path opacity="0.992" fill-rule="evenodd" clip-rule="evenodd" d="M39.104 32.125C29.8957 32.125 20.6874 32.125 11.479 32.125C11.0711 25.8941 11.0121 19.6372 11.302 13.3542C15.9392 13.1196 20.6024 13.0016 25.2915 13C29.9807 13.0016 34.6439 13.1196 39.2811 13.3542C39.571 19.6372 39.512 25.8941 39.104 32.125Z" fill="#959DA5"></path><path fill-rule="evenodd" clip-rule="evenodd" d="M28.8334 19.7291C28.7258 19.9593 28.6077 20.1954 28.4792 20.4375C29.0695 21.1458 29.6598 21.8541 30.2501 22.5625C29.6598 23.2708 29.0695 23.9791 28.4792 24.6875C28.6136 25.2942 28.9677 25.6484 29.5417 25.75C27.8092 27.4467 25.8023 28.3321 23.5209 28.4062C23.9931 28.5243 24.4654 28.6423 24.9376 28.7604C24.0535 29.2318 23.3452 29.8811 22.8126 30.7083C21.1598 30.7083 19.507 30.7083 17.8542 30.7083C19.4241 28.7716 21.2539 27.1188 23.3438 25.75C23.4619 25.3958 23.58 25.0416 23.698 24.6875C23.8624 24.898 23.9215 25.1341 23.8751 25.3958C23.7006 26.2124 23.5826 27.0388 23.5209 27.875C24.1031 27.9506 24.6344 27.8325 25.1147 27.5208C25.4958 24.9624 26.0271 22.4832 26.7084 20.0833C26.7736 20.9421 27.0097 20.9421 27.4167 20.0833C27.8546 19.8192 28.3268 19.7011 28.8334 19.7291Z" fill="#27C3DA"></path><path fill-rule="evenodd" clip-rule="evenodd" d="M38.0417 23.625C38.0417 25.9861 38.0417 28.3472 38.0417 30.7083C32.9653 30.7083 27.8889 30.7083 22.8125 30.7083C23.3451 29.8811 24.0534 29.2318 24.9375 28.7604C24.4653 28.6424 23.993 28.5243 23.5208 28.4062C25.8022 28.3322 27.8091 27.4467 29.5417 25.75C32.2154 24.8678 35.0487 24.1594 38.0417 23.625Z" fill="#22D0D8"></path><path fill-rule="evenodd" clip-rule="evenodd" d="M24.5834 22.5625C24.4764 23.5798 24.2402 24.5243 23.8751 25.3958C23.9215 25.1341 23.8624 24.898 23.698 24.6875C23.58 25.0417 23.4619 25.3958 23.3438 25.75C21.2539 27.1188 19.4241 28.7716 17.8542 30.7083C16.4376 30.7083 15.0209 30.7083 13.6042 30.7083C15.3718 28.3507 17.3788 26.2257 19.6251 24.3333C20.2019 24.7319 20.7332 25.2041 21.2188 25.75C22.3174 25.0993 22.3765 24.391 21.3959 23.625C21.8117 22.9376 22.402 22.4064 23.1667 22.0313C23.7665 21.8598 24.2387 22.0369 24.5834 22.5625Z" fill="#26BBDE"></path><path fill-rule="evenodd" clip-rule="evenodd" d="M38.0416 17.25C38.0416 19.375 38.0416 21.5 38.0416 23.625C35.0486 24.1594 32.2153 24.8678 29.5416 25.75C30.4781 24.6945 31.4226 23.632 32.3749 22.5625C31.4848 21.1945 30.3043 20.2501 28.8333 19.7292C31.6759 18.3676 34.7453 17.5413 38.0416 17.25Z" fill="#22C3DC"></path><path fill-rule="evenodd" clip-rule="evenodd" d="M28.8334 19.7292C30.3044 20.2501 31.485 21.1945 32.3751 22.5625C31.4227 23.632 30.4783 24.6945 29.5417 25.75C28.9678 25.6484 28.6136 25.2942 28.4792 24.6875C29.0695 23.9792 29.6598 23.2709 30.2501 22.5625C29.6598 21.8542 29.0695 21.1459 28.4792 20.4375C28.6077 20.1954 28.7258 19.9594 28.8334 19.7292Z" fill="#EFF9FB"></path><path fill-rule="evenodd" clip-rule="evenodd" d="M21.3958 23.625C22.3763 24.391 22.3173 25.0993 21.2187 25.75C20.733 25.2041 20.2018 24.7319 19.6249 24.3333C19.161 23.7498 18.6888 23.1595 18.2083 22.5625C19.0831 21.1418 20.2637 20.2563 21.7499 19.9062C21.9119 20.0529 22.03 20.23 22.1041 20.4375C21.5138 21.1458 20.9235 21.8542 20.3333 22.5625C20.577 23.0424 20.9312 23.3965 21.3958 23.625Z" fill="#F0F8FC"></path><path fill-rule="evenodd" clip-rule="evenodd" d="M26.7083 20.0833C26.0269 22.4833 25.4957 24.9624 25.1145 27.5208C24.6342 27.8326 24.103 27.9506 23.5208 27.875C23.5824 27.0388 23.7005 26.2124 23.8749 25.3958C24.2401 24.5243 24.4762 23.5798 24.5833 22.5625C24.9823 20.8036 25.3364 19.0327 25.6458 17.25C26.118 17.25 26.5902 17.25 27.0624 17.25C26.8529 18.1805 26.7349 19.1249 26.7083 20.0833Z" fill="#F6FBFD"></path><path fill-rule="evenodd" clip-rule="evenodd" d="M30.2501 14.4167C32.8473 14.4167 35.4445 14.4167 38.0417 14.4167C38.0417 15.3611 38.0417 16.3056 38.0417 17.25C34.7455 17.5413 31.676 18.3677 28.8334 19.7292C28.3268 19.7011 27.8546 19.8192 27.4167 20.0834C27.0097 20.9421 26.7736 20.9421 26.7084 20.0834C26.735 19.1249 26.8531 18.1805 27.0626 17.25C26.5904 17.25 26.1181 17.25 25.6459 17.25C25.3366 19.0328 24.9824 20.8036 24.5834 22.5625C24.2387 22.0369 23.7665 21.8599 23.1667 22.0313C22.402 22.4064 21.8117 22.9376 21.3959 23.625C20.9313 23.3965 20.5772 23.0424 20.3334 22.5625C20.9237 21.8542 21.514 21.1459 22.1042 20.4375C22.0301 20.23 21.9121 20.0529 21.7501 19.9063C20.2639 20.2564 19.0833 21.1418 18.2084 22.5625C18.689 23.1595 19.1612 23.7498 19.6251 24.3334C17.3788 26.2257 15.3718 28.3507 13.6042 30.7084C13.2501 30.7084 12.8959 30.7084 12.5417 30.7084C12.5417 28.7014 12.5417 26.6945 12.5417 24.6875C17.7062 19.9806 23.609 16.557 30.2501 14.4167Z" fill="#21ABE2"></path><path fill-rule="evenodd" clip-rule="evenodd" d="M19.9792 14.4167C23.4029 14.4167 26.8265 14.4167 30.2501 14.4167C23.609 16.557 17.7062 19.9806 12.5417 24.6875C12.5417 22.9167 12.5417 21.1459 12.5417 19.375C14.973 17.6297 17.4522 15.9769 19.9792 14.4167Z" fill="#1D99E9"></path><path fill-rule="evenodd" clip-rule="evenodd" d="M19.9792 14.4167C17.4522 15.9769 14.973 17.6297 12.5417 19.375C12.5417 17.7222 12.5417 16.0695 12.5417 14.4167C15.0209 14.4167 17.5001 14.4167 19.9792 14.4167Z" fill="#1B89EE"></path><path opacity="0.997" fill-rule="evenodd" clip-rule="evenodd" d="M11.4792 32.125C20.6875 32.125 29.8958 32.125 39.1042 32.125C39.8657 32.9253 40.6331 33.7517 41.4063 34.6042C41.5772 34.9399 41.6363 35.2941 41.5833 35.6667C37.8037 35.7256 34.0259 35.6666 30.25 35.4896C29.9466 35.2455 29.7105 34.9504 29.5417 34.6042C26.7157 34.1916 23.8824 34.1326 21.0417 34.4271C20.7383 34.6711 20.5022 34.9663 20.3333 35.3125C16.4992 35.5486 12.7214 35.7847 9 36.0208C9.14788 34.4522 9.97427 33.1536 11.4792 32.125Z" fill="#707A83"></path><path opacity="0.994" fill-rule="evenodd" clip-rule="evenodd" d="M41.5833 35.6666C41.5833 36.1388 41.5833 36.6111 41.5833 37.0833C30.7222 37.0833 19.8611 37.0833 9 37.0833C9 36.7291 9 36.375 9 36.0208C12.7214 35.7847 16.4992 35.5486 20.3333 35.3125C20.5022 34.9662 20.7383 34.6711 21.0417 34.4271C23.8824 34.1325 26.7157 34.1916 29.5417 34.6041C29.7105 34.9504 29.9466 35.2455 30.25 35.4896C34.0259 35.6666 37.8037 35.7256 41.5833 35.6666Z" fill="#919AA1"></path></svg>