<svg xmlns="http://www.w3.org/2000/svg" width="50" height="50" viewBox="0 0 50 50" fill="none"><path d="M41.9511 15.6783C41.9633 15.7235 41.9697 15.7702 41.9697 15.8171V23.1023C41.9697 23.2927 41.8679 23.4685 41.7028 23.5631L35.5881 27.0836V34.0615C35.5881 34.2514 35.4872 34.4267 35.3225 34.5223L22.5586 41.87C22.5294 41.8866 22.4976 41.8972 22.4657 41.9085C22.4537 41.9125 22.4425 41.9198 22.4298 41.9231C22.3406 41.9466 22.2468 41.9466 22.1576 41.9231C22.143 41.9191 22.1297 41.9111 22.1158 41.9058C22.0866 41.8952 22.056 41.8859 22.0281 41.87L9.26692 34.5223C9.10192 34.4275 9 34.2518 9 34.0615V12.2056C9 12.1578 9.00664 12.1113 9.01859 12.0662C9.02258 12.0509 9.03187 12.037 9.03718 12.0217C9.04714 11.9938 9.05644 11.9653 9.07105 11.9394C9.08101 11.9221 9.09561 11.9082 9.10757 11.8922C9.12284 11.871 9.13678 11.8491 9.15471 11.8305C9.16998 11.8152 9.1899 11.8039 9.20716 11.7906C9.22642 11.7747 9.24368 11.7574 9.2656 11.7448H9.26626L15.6472 8.07096C15.8116 7.97635 16.014 7.97635 16.1784 8.07096L22.5593 11.7448H22.5606C22.5819 11.7581 22.5998 11.7747 22.6191 11.79C22.6363 11.8032 22.6556 11.8152 22.6709 11.8298C22.6895 11.8491 22.7027 11.871 22.7187 11.8922C22.73 11.9082 22.7452 11.9221 22.7545 11.9394C22.7698 11.9659 22.7784 11.9938 22.7891 12.0217C22.7944 12.037 22.8037 12.0509 22.8076 12.0668C22.8199 12.1121 22.8261 12.1587 22.8262 12.2056V25.8566L28.1435 22.7949V15.8164C28.1435 15.7699 28.1501 15.7228 28.1621 15.6783C28.1667 15.6623 28.1753 15.6484 28.1806 15.6331C28.1913 15.6052 28.2006 15.5767 28.2152 15.5508C28.2251 15.5335 28.2397 15.5196 28.251 15.5037C28.267 15.4824 28.2802 15.4605 28.2988 15.4419C28.3141 15.4266 28.3334 15.4153 28.3506 15.4021C28.3705 15.3861 28.3878 15.3689 28.4091 15.3562H28.4097L34.7913 11.6824C34.9557 11.5876 35.1581 11.5876 35.3225 11.6824L41.7034 15.3562C41.726 15.3695 41.7433 15.3861 41.7632 15.4014C41.7798 15.4147 41.7991 15.4266 41.8143 15.4412C41.8329 15.4605 41.8462 15.4824 41.8621 15.5037C41.8741 15.5196 41.8887 15.5335 41.898 15.5508C41.9133 15.5767 41.9219 15.6052 41.9325 15.6331C41.9385 15.6484 41.9471 15.6623 41.9511 15.6783ZM40.906 22.7949V16.7367L38.673 18.0222L35.5881 19.7983V25.8566L40.9066 22.7949H40.906ZM34.5251 33.754V27.6918L31.4906 29.4248L22.8256 34.3702V40.4895L34.5251 33.754ZM10.0637 13.1252V33.754L21.7619 40.4889V34.3709L15.6505 30.9122L15.6485 30.9108L15.6459 30.9095C15.6253 30.8976 15.608 30.8803 15.5888 30.8657C15.5722 30.8524 15.5529 30.8418 15.5383 30.8272L15.537 30.8252C15.5197 30.8086 15.5078 30.788 15.4931 30.7694C15.4799 30.7515 15.4639 30.7362 15.4533 30.7176L15.4526 30.7156C15.4407 30.6957 15.4334 30.6718 15.4248 30.6492C15.4161 30.6293 15.4048 30.6107 15.3995 30.5895V30.5888C15.3929 30.5636 15.3916 30.537 15.3889 30.5111C15.3862 30.4912 15.3809 30.4713 15.3809 30.4514V30.45V16.1869L12.2967 14.4101L10.0637 13.1259V13.1252ZM15.9135 9.1453L10.5969 12.2056L15.9121 15.2659L21.228 12.205L15.9121 9.1453H15.9135ZM18.6783 28.2443L21.7625 26.4688V13.1252L19.5295 14.4107L16.4446 16.1869V29.5304L18.6783 28.2443ZM35.0569 12.7567L29.741 15.8171L35.0569 18.8774L40.3721 15.8164L35.0569 12.7567ZM34.5251 19.7983L31.4402 18.0222L29.2072 16.7367V22.7949L32.2914 24.5704L34.5251 25.8566V19.7983ZM22.2931 33.4506L30.0903 28.9992L33.9879 26.7749L28.676 23.7165L22.56 27.2377L16.9858 30.4467L22.2931 33.4506Z" fill="#FF2D20"></path><rect width="50" height="50" rx="10" fill="#FF2D20" fill-opacity="0.2"></rect></svg>