<svg xmlns="http://www.w3.org/2000/svg" width="50" height="50" viewBox="0 0 50 50" fill="none"><rect width="50" height="50" rx="10" fill="#41396E" fill-opacity="0.2"></rect><path opacity="0.991" fill-rule="evenodd" clip-rule="evenodd" d="M36.1477 10.1334C36.4728 19.1295 36.5201 28.1438 36.2898 37.1763C36.0531 38.6552 35.4375 39.5708 34.4432 39.9229C27.4235 40.2668 20.4159 40.1964 13.4205 39.7116C12.8511 39.216 12.425 38.5118 12.142 37.5989C11.9527 28.5846 11.9527 19.5703 12.142 10.556C12.3649 9.80131 12.6964 9.16749 13.1364 8.65452C20.3085 7.95842 27.5055 7.81754 34.7273 8.23198C35.3411 8.65279 35.8146 9.28661 36.1477 10.1334Z" fill="#F1F1F1"></path><path fill-rule="evenodd" clip-rule="evenodd" d="M14.2727 10.1335C20.9022 10.0631 27.5309 10.1335 34.1591 10.3447C34.3958 10.6968 34.6326 11.049 34.8693 11.4011C35.0587 19.852 35.0587 28.3029 34.8693 36.7538C34.6326 37.1059 34.3958 37.4581 34.1591 37.8102C27.5303 38.0919 20.9015 38.0919 14.2727 37.8102C14.036 37.4581 13.7992 37.1059 13.5625 36.7538C13.3731 28.3029 13.3731 19.852 13.5625 11.4011C13.8593 11.032 14.0961 10.6095 14.2727 10.1335Z" fill="#41396E"></path><path opacity="0.334" fill-rule="evenodd" clip-rule="evenodd" d="M36.1477 10.1335C36.5142 10.3691 36.7509 10.7917 36.8579 11.4011C37.0473 20.4154 37.0473 29.4297 36.8579 38.444C36.6351 39.1987 36.3036 39.8325 35.8636 40.3455C28.6914 41.0416 21.4945 41.1825 14.2727 40.768C13.8629 40.6088 13.5788 40.2567 13.4204 39.7117C20.4159 40.1964 27.4235 40.2669 34.4432 39.9229C35.4375 39.5708 36.053 38.6553 36.2897 37.1764C36.5201 28.1439 36.4728 19.1296 36.1477 10.1335Z" fill="#020202"></path><path fill-rule="evenodd" clip-rule="evenodd" d="M34.1591 15.6265C27.5303 15.6265 20.9015 15.6265 14.2727 15.6265C14.192 14.242 14.2868 12.9039 14.5568 11.6123C20.9962 11.3306 27.4356 11.3306 33.875 11.6123C34.145 12.9039 34.2397 14.242 34.1591 15.6265Z" fill="#717DC1"></path><path fill-rule="evenodd" clip-rule="evenodd" d="M14.2725 15.6266C20.9013 15.6266 27.5301 15.6266 34.1589 15.6266C34.2062 22.5296 34.1589 29.4312 34.0168 36.3313C30.7708 36.6109 27.5037 36.7517 24.2157 36.7539C20.9277 36.7517 17.6606 36.6109 14.4146 36.3313C14.2725 29.4312 14.2252 22.5296 14.2725 15.6266Z" fill="#9AA2E6"></path><path fill-rule="evenodd" clip-rule="evenodd" d="M24.784 20.6971C25.0681 20.6971 25.3522 20.6971 25.6363 20.6971C25.0515 23.8006 24.436 26.8993 23.7897 29.9931C23.5881 30.6157 23.2567 30.8973 22.7954 30.8382C23.2823 27.3775 23.9452 23.9971 24.784 20.6971Z" fill="#EAEBF0"></path><path fill-rule="evenodd" clip-rule="evenodd" d="M21.375 23.6549C21.7948 23.5442 22.1736 23.685 22.5114 24.0774C22.464 24.2183 22.4167 24.3591 22.3693 24.5C21.4746 25.1323 20.575 25.7661 19.6704 26.4014C20.4419 27.2076 21.2941 27.7709 22.2273 28.0916C22.6026 28.7442 22.5079 29.2372 21.9432 29.5705C20.8188 28.755 19.6824 27.9803 18.5341 27.2465C18.1553 26.6831 18.1553 26.1197 18.5341 25.5563C19.5457 25.0357 20.4927 24.4019 21.375 23.6549Z" fill="#EAEBF0"></path><path fill-rule="evenodd" clip-rule="evenodd" d="M25.9205 23.655C27.2831 24.0721 28.6088 24.706 29.8978 25.5564C30.1867 25.9999 30.2341 26.4928 30.0398 27.0353C28.7567 28.3194 27.3835 28.8828 25.9205 28.7255C26.8119 27.8503 27.7589 27.0756 28.7614 26.4015C27.8855 25.9201 27.0332 25.3568 26.2046 24.7113C25.9908 24.4279 25.8961 24.0758 25.9205 23.655Z" fill="#EAEBF1"></path></svg>