<svg xmlns="http://www.w3.org/2000/svg" width="50" height="50" viewBox="0 0 50 50" fill="none"><rect width="50" height="50" rx="10" fill="#0091EA" fill-opacity="0.2"></rect><path d="M15.65 41.9998H34.35C38.5754 41.9998 42 38.5743 42 34.3498V27.8331H8V34.3498C8 38.5743 11.4246 41.9998 15.65 41.9998Z" fill="#0091EA"></path><path d="M42 17.4442H8V27.8331H42V17.4442Z" fill="#00B0FF"></path><path d="M34.35 8H15.65C11.4246 8 8 11.4246 8 15.65V17.4444H42V15.65C42 11.4246 38.5754 8 34.35 8Z" fill="#40C4FF"></path><path d="M23.9177 20.2239L25.5591 17.4217L24.0499 14.8462C23.6552 14.1709 22.7872 13.9452 22.1119 14.34C21.4367 14.7347 21.21 15.6027 21.6057 16.278L23.9177 20.2239Z" fill="white"></path><path d="M27.6312 14.3409C26.955 13.9452 26.087 14.1719 25.6932 14.8472L17.5294 28.7777H20.8133L28.1365 16.2799C28.5322 15.6046 28.3055 14.7367 27.6312 14.3409Z" fill="white"></path><path d="M34.9364 33.4243L27.7483 21.1588L27.0276 22.3894C26.6083 23.2866 26.5516 24.301 26.8529 25.2331L32.4931 34.858C32.7566 35.3075 33.2298 35.5578 33.7162 35.5578C33.9589 35.5578 34.2064 35.4955 34.4311 35.3633C35.1064 34.9675 35.3321 34.0996 34.9364 33.4243Z" fill="white"></path><path d="M26.3912 28.7014L26.2297 28.4285C26.0899 28.2169 25.935 28.0186 25.7593 27.842H13.95C13.167 27.842 12.5333 28.47 12.5333 29.2435C12.5333 30.017 13.167 30.6451 13.95 30.6451H26.5999C26.7831 30.0284 26.733 29.3399 26.3912 28.7014Z" fill="white"></path><path d="M18.0678 33.4633C17.6079 32.9382 16.9439 32.5812 16.1506 32.5576H16.1468C15.8474 32.5491 15.5537 32.5822 15.2666 32.6398L14.8066 33.4246C14.4109 34.0999 14.6376 34.9678 15.3129 35.3635C15.5376 35.4958 15.7851 35.5581 16.0278 35.5581C16.5142 35.5581 16.9883 35.3069 17.2509 34.8583L18.0678 33.4633Z" fill="white"></path><path d="M30.8518 27.842H36.05C36.833 27.842 37.4667 28.47 37.4667 29.2435C37.4667 30.017 36.833 30.6451 36.05 30.6451H30.9557C30.7725 30.0284 30.6761 28.0186 30.8518 27.842Z" fill="white"></path></svg>