<svg xmlns="http://www.w3.org/2000/svg" width="50" height="50" viewBox="0 0 50 50" fill="none"><rect width="50" height="50" rx="10" fill="#026EC3" fill-opacity="0.2"></rect><path d="M26.9252 8.22298C28.556 9.07835 30.0225 10.1526 31.515 11.2665C31.9046 11.5478 32.2943 11.829 32.6958 12.1188C33.4963 12.6984 34.2882 13.2926 35.0713 13.9002C36.3066 14.8279 36.3066 14.8279 37.7479 15.4231C39.4258 16.2769 40.3174 16.8969 41.4418 18.5241C42.3174 22.3004 41.9389 26.3476 41.7887 30.2007C41.7666 31.285 41.7468 32.3693 41.7295 33.4537C41.6906 35.4258 41.6443 37.3968 41.5715 39.3677C41.557 39.763 41.5425 40.1582 41.5276 40.5655C41.4418 41.4676 41.4418 41.4676 41.0148 41.9358C40.0349 41.9825 39.0536 41.9958 38.0728 41.9964C37.7652 41.9972 37.4577 41.998 37.1408 41.9989C36.1195 42.001 35.0981 41.9996 34.0767 41.998C33.37 41.9983 32.6633 41.9988 31.9565 41.9994C30.4734 42.0001 28.9903 41.999 27.5072 41.9969C25.6019 41.9942 23.6966 41.9957 21.7912 41.9985C20.3313 42.0002 18.8714 41.9997 17.4114 41.9985C16.7087 41.9982 16.006 41.9986 15.3032 41.9996C14.3228 42.0008 13.3424 41.999 12.3619 41.9964C11.5233 41.9958 11.5233 41.9958 10.6678 41.9953C9.41989 41.9358 9.41989 41.9358 8.99293 41.4676C8.60783 38.3304 8.58387 35.1243 8.49165 31.9641C8.45258 30.8953 8.39739 29.8269 8.32529 28.7601C7.75573 20.1485 7.75573 20.1485 9.80669 17.4557C11.8316 15.5701 14.0819 14.2599 16.4727 13.0185C18.0382 12.1593 19.4293 11.0775 20.841 9.94959C22.8288 8.42414 24.5067 7.59067 26.9252 8.22298Z" fill="#1DA0E3"></path><path d="M15.8475 16.5906C16.5378 16.5883 16.5378 16.5883 17.242 16.5861C17.7428 16.587 18.2435 16.588 18.7595 16.589C19.2696 16.5885 19.7797 16.5881 20.3053 16.5876C21.3864 16.5873 22.4675 16.5881 23.5486 16.5901C25.21 16.5926 26.8714 16.5901 28.5328 16.5871C29.5802 16.5874 30.6276 16.588 31.675 16.589C32.1757 16.588 32.6765 16.5871 33.1925 16.5861C33.6526 16.5876 34.1128 16.589 34.587 16.5906C34.9943 16.5909 35.4017 16.5913 35.8213 16.5917C36.7451 16.6511 36.7451 16.6511 37.1721 17.1194C37.6403 19.276 37.7324 21.0654 37.1721 23.2064C35.4884 24.8603 33.6591 25.8816 31.6314 26.9477C30.3356 27.657 29.1387 28.5075 27.9124 29.352C25.889 30.7331 25.889 30.7331 24.8734 30.5882C23.6676 30.1272 22.6442 29.4765 21.543 28.7667C21.0882 28.4746 20.6333 28.1824 20.1646 27.8814C19.6921 27.5748 19.2196 27.2682 18.7328 26.9523C18.2553 26.6457 17.7779 26.339 17.286 26.0231C13.7563 23.7481 13.7563 23.7481 13.2624 23.2064C13.2202 22.1928 13.207 21.1776 13.209 20.1629C13.2079 19.6076 13.2068 19.0523 13.2057 18.4802C13.2993 16.2336 13.9959 16.5922 15.8475 16.5906Z" fill="#F2F3F2"></path><path d="M41.4419 20.397C41.4419 27.3503 41.4419 34.3036 41.4419 41.4676C37.6076 39.0647 33.7796 36.6543 29.9674 34.2099C29.5057 33.9142 29.0439 33.6184 28.5682 33.3137C27.4511 32.5982 26.3343 31.8824 25.2175 31.1664C26.2603 29.9604 27.2114 29.0177 28.5481 28.2345C28.8569 28.0506 29.1657 27.8667 29.4839 27.6773C29.8108 27.4863 30.1377 27.2954 30.4745 27.0986C33.3924 25.362 36.2595 23.5605 39.09 21.6578C40.9741 20.397 40.9741 20.397 41.4419 20.397Z" fill="#33BDEF"></path><path d="M26.925 8.22293C28.5559 9.07856 30.0222 10.1525 31.5148 11.2665C31.9274 11.5647 32.34 11.8629 32.7651 12.1702C33.9542 13.032 35.1365 13.9041 36.3181 14.7782C36.9013 15.2022 37.485 15.6255 38.0693 16.0476C39.1981 16.8659 40.3224 17.6902 41.4416 18.5241C41.3499 19.6124 41.3499 19.6124 41.0147 20.8652C39.8151 21.8724 38.5362 22.4689 37.172 23.2064C37.0311 21.1977 36.8902 19.189 36.7451 17.1194C29.1367 17.1194 21.5283 17.1194 13.6893 17.1194C13.5484 19.1281 13.4075 21.1368 13.2624 23.2064C11.8534 22.2793 10.4445 21.3522 8.9928 20.397C9.41976 18.0558 9.41976 18.0558 10.118 17.3411C10.4176 17.1448 10.7172 16.9485 11.0259 16.7463C11.36 16.5216 11.6942 16.2969 12.0385 16.0654C12.3984 15.8338 12.7582 15.6021 13.129 15.3635C13.872 14.8714 14.6147 14.3788 15.3571 13.8856C15.9103 13.5217 15.9103 13.5217 16.4746 13.1504C17.4302 12.5057 18.3574 11.8348 19.2798 11.1348C19.5414 10.9384 19.803 10.7421 20.0726 10.5399C20.7688 10.0131 21.4613 9.48039 22.1534 8.94723C23.8328 8.05017 25.12 7.74859 26.925 8.22293Z" fill="#026EC3"></path></svg>