<svg xmlns="http://www.w3.org/2000/svg" width="50" height="50" viewBox="0 0 50 50" fill="none"><path d="M27.9389 24.9351C27.9389 23.0593 26.5797 21.5385 24.9028 21.5385C23.2261 21.5385 21.8667 23.0593 21.8667 24.9351C21.8667 26.8111 23.2261 28.3318 24.9028 28.3318C26.5797 28.3318 27.9389 26.8111 27.9389 24.9351Z" fill="#53C1DE"></path><path fill-rule="evenodd" clip-rule="evenodd" d="M34.8605 18.6625C35.5016 15.7478 36.3075 10.3427 33.4665 8.51021C30.6387 6.6857 26.9589 10.1818 25.0158 12.2803C23.0783 10.2027 19.2951 6.72156 16.4565 8.55987C13.6298 10.3905 14.5015 15.706 15.1569 18.639C12.5201 19.4768 8 21.2814 8 24.9685C8 28.6451 12.5154 30.6084 15.1366 31.4455C14.4788 34.3947 13.6508 39.6343 16.481 41.4608C19.3303 43.2988 23.1017 39.9005 25.0628 37.779C27.0184 39.8899 30.6628 43.3104 33.4912 41.4788C36.3283 39.6413 35.5894 34.3087 34.934 31.3587C37.4749 30.5198 42 28.5992 42 24.9685C42 21.3169 37.4557 19.4976 34.8605 18.6625ZM34.5384 29.7953C34.108 28.2713 33.5272 26.6507 32.8167 24.9766C33.4949 23.342 34.0532 21.7423 34.4715 20.2281C36.374 20.8452 40.5476 22.2555 40.5476 24.9685C40.5476 27.7069 36.5425 29.1306 34.5384 29.7953ZM32.7633 40.0725C30.6531 41.439 27.5184 38.1679 26.0742 36.6135C27.0323 35.4411 27.9897 34.0783 28.9242 32.5649C30.568 32.4018 32.1207 32.135 33.529 31.7708C33.9903 33.8575 34.8829 38.6998 32.7633 40.0725ZM17.2068 40.053C15.0963 38.6915 16.0609 34.016 16.5448 31.8435C17.9375 32.1883 19.4791 32.4362 21.1267 32.5857C22.0673 34.0665 23.0525 35.4277 24.0453 36.6198C22.8187 37.9472 19.3271 41.4207 17.2068 40.053ZM9.45236 24.9685C9.45236 22.2198 13.601 20.8197 15.5469 20.2042C15.9724 21.7523 16.5305 23.3711 17.2041 25.0081C16.5218 26.6694 15.9557 28.3138 15.5263 29.8803C13.6708 29.2861 9.45236 27.7188 9.45236 24.9685ZM17.1842 9.96617C19.3033 8.5939 22.5913 11.9359 23.998 13.4402C23.0103 14.6268 22.0342 15.9777 21.1017 17.45C19.5027 17.6159 17.9719 17.8821 16.5647 18.2388C16.0367 15.8732 15.0674 11.337 17.1842 9.96617ZM29.9632 19.2162C31.048 19.3693 32.0874 19.5731 33.0633 19.8223C32.7704 20.8729 32.4052 21.9715 31.9751 23.0977C31.3517 21.7743 30.6824 20.4775 29.9632 19.2162ZM25.0162 14.6014C25.6861 15.4133 26.3571 16.3199 27.0171 17.3036C25.6783 17.2327 24.3373 17.2324 22.9985 17.3025C23.6592 16.328 24.3359 15.4227 25.0162 14.6014ZM18.0374 23.0965C17.6144 21.9743 17.2525 20.8708 16.957 19.8052C17.9271 19.5624 18.9616 19.3638 20.0394 19.2132C19.3181 20.4717 18.65 21.768 18.0374 23.0965ZM20.0703 30.8398C18.957 30.7008 17.9068 30.5123 16.937 30.2761C17.2372 29.1918 17.607 28.0646 18.039 26.9181C18.6601 28.2605 19.3384 29.5693 20.0703 30.8398ZM25.0564 35.4504C24.3681 34.6194 23.6814 33.7002 23.0108 32.7116C24.3572 32.7707 25.7062 32.7708 27.0525 32.7036C26.3904 33.7103 25.7218 34.6308 25.0564 35.4504ZM31.9889 26.8598C32.4434 28.0187 32.8265 29.1398 33.1308 30.2058C32.1449 30.4575 31.0806 30.6602 29.9591 30.8107C30.6837 29.5255 31.3636 28.2086 31.9889 26.8598ZM28.1136 31.0077C26.0541 31.1723 23.9818 31.1705 21.9216 31.0211C20.751 29.1081 19.7089 27.0962 18.8094 25.0076C19.7046 22.9233 20.7391 20.9153 21.9042 19.0053C23.9658 18.831 26.0402 18.8304 28.1018 19.0063C29.2569 20.9162 30.2898 22.9189 31.2058 24.9844C30.3007 27.0677 29.2608 29.0797 28.1136 31.0077ZM32.741 9.91786C34.8607 11.2856 33.9172 16.1433 33.4541 18.2557C32.0436 17.8915 30.5117 17.6206 28.9081 17.4521C27.9738 15.9639 27.0058 14.6106 26.0341 13.4393C27.4588 11.9027 30.6418 8.56347 32.741 9.91786Z" fill="#53C1DE"></path><rect width="50" height="50" rx="10" fill="#53C1DE" fill-opacity="0.2"></rect></svg>