<svg xmlns="http://www.w3.org/2000/svg" width="50" height="50" viewBox="0 0 50 50" fill="none"><rect width="50" height="50" rx="10" fill="#463C4B" fill-opacity="0.2"></rect><path opacity="0.959" fill-rule="evenodd" clip-rule="evenodd" d="M32.5381 15.2651C31.9956 15.9558 31.3674 16.6338 30.6536 17.2993C24.5848 17.5898 18.5124 17.6867 12.4364 17.5899C12.1345 15.3528 13.1815 14.1905 15.5773 14.1028C15.3773 11.6683 16.4242 9.82788 18.7182 8.58142C23.6522 7.06392 26.793 8.51691 28.1409 12.9404C30.2211 12.7364 31.6869 13.5113 32.5381 15.2651Z" fill="#59D7FE"></path><path fill-rule="evenodd" clip-rule="evenodd" d="M32.5382 15.2651C34.4227 15.0714 35.2603 15.8463 35.0509 17.5899C35.0442 18.4718 34.6255 19.1499 33.7945 19.6241C30.6606 19.9143 27.5197 20.0111 24.3719 19.9147C23.9531 19.9147 23.5343 19.9147 23.1155 19.9147C19.9677 20.0111 16.8268 19.9143 13.6929 19.6241C12.8619 19.1499 12.4432 18.4718 12.4365 17.5899C18.5125 17.6867 24.5849 17.5898 30.6536 17.2993C31.3675 16.6338 31.9957 15.9558 32.5382 15.2651Z" fill="#2588C3"></path><path fill-rule="evenodd" clip-rule="evenodd" d="M12.4364 17.5899C12.4431 18.4718 12.8618 19.1498 13.6928 19.624C16.8267 19.9142 19.9676 20.011 23.1154 19.9146C21.2572 21.039 19.4773 22.3951 17.7759 23.983C16.1313 27.4674 16.8641 30.4702 19.9745 32.9915C25.9279 34.7908 29.4875 32.8535 30.6536 27.1795C30.7267 25.7008 30.2031 24.4415 29.0831 23.4018C27.4761 22.1455 25.9057 20.9831 24.3718 19.9146C27.5196 20.011 30.6605 19.9142 33.7944 19.624C34.6254 19.1498 35.0441 18.4718 35.0508 17.5899C36.0978 17.5899 37.1447 17.5899 38.1917 17.5899C38.3693 18.0485 38.6834 18.436 39.1339 18.7522C39.4479 24.1733 39.5526 29.5977 39.448 35.0256C28.9784 35.0256 18.5088 35.0256 8.03919 35.0256C7.93462 29.4041 8.03932 23.7859 8.35328 18.171C9.63528 17.6345 10.9963 17.4408 12.4364 17.5899Z" fill="#555B6F"></path><path opacity="0.988" fill-rule="evenodd" clip-rule="evenodd" d="M38.1918 17.5899C39.4275 17.4507 40.5792 17.6445 41.6467 18.1711C41.9607 23.7859 42.0654 29.4041 41.9608 35.0257C41.1233 35.0257 40.2857 35.0257 39.4481 35.0257C39.5527 29.5977 39.448 24.1733 39.134 18.7523C38.6835 18.436 38.3694 18.0485 38.1918 17.5899Z" fill="#463C4B"></path><path fill-rule="evenodd" clip-rule="evenodd" d="M23.1154 19.9147C23.5342 19.9147 23.9529 19.9147 24.3717 19.9147C25.9056 20.9831 27.476 22.1455 29.083 23.4018C30.2031 24.4416 30.7266 25.7009 30.6535 27.1796C29.4875 32.8535 25.9278 34.7908 19.9745 32.9915C16.8641 30.4702 16.1312 27.4675 17.7759 23.983C19.4773 22.3951 21.2572 21.039 23.1154 19.9147Z" fill="#58CEF5"></path><path fill-rule="evenodd" clip-rule="evenodd" d="M22.4873 22.8206C24.4861 23.1288 26.3706 23.71 28.1409 24.5642C28.2931 26.413 28.2931 28.1566 28.1409 29.7949C26.8959 30.2112 25.8489 30.8893 25 31.8291C24.1625 32.2166 23.3249 32.2166 22.4873 31.8291C21.1292 30.9612 19.8729 29.9925 18.7183 28.9231C19.5558 27.9545 19.5558 26.9859 18.7183 26.0172C20.0504 25.0008 21.3067 23.9353 22.4873 22.8206Z" fill="#268AC6"></path><path fill-rule="evenodd" clip-rule="evenodd" d="M29.3972 21.077C31.1278 21.9263 32.2795 23.2824 32.8522 25.1454C33.0323 26.5348 33.3464 27.891 33.7945 29.2137C32.9569 30.7636 32.1193 30.7636 31.2817 29.2137C31.9378 27.8958 32.0425 26.5397 31.5958 25.1454C30.8463 23.7584 30.1134 22.4023 29.3972 21.077Z" fill="#5AC8ED"></path><path fill-rule="evenodd" clip-rule="evenodd" d="M14.3211 24.5642C16.3788 24.9906 16.7976 26.0561 15.5775 27.7608C15.867 29.8262 16.7046 31.6666 18.0902 33.2821C17.8808 33.4758 17.6714 33.6696 17.462 33.8633C14.6872 31.2056 13.6402 28.1059 14.3211 24.5642Z" fill="#59C8EE"></path><path fill-rule="evenodd" clip-rule="evenodd" d="M22.4873 26.3078C23.3249 26.3078 24.1625 26.3078 25 26.3078C25 27.0827 25 27.8577 25 28.6326C24.1625 28.6326 23.3249 28.6326 22.4873 28.6326C22.4873 27.8577 22.4873 27.0827 22.4873 26.3078Z" fill="#55CFF9"></path><path fill-rule="evenodd" clip-rule="evenodd" d="M8.03927 35.0257C18.5089 35.0257 28.9785 35.0257 39.4481 35.0257C39.5163 36.1961 39.0975 37.1648 38.1918 37.9317C34.4227 37.9317 30.6536 37.9317 26.8846 37.9317C25 37.9317 23.1155 37.9317 21.231 37.9317C17.0379 38.0283 12.85 37.9314 8.66745 37.6411C8.11455 36.8529 7.90515 35.9811 8.03927 35.0257Z" fill="#D6E5EF"></path><path opacity="0.952" fill-rule="evenodd" clip-rule="evenodd" d="M39.4481 35.0257C40.2857 35.0257 41.1233 35.0257 41.9608 35.0257C42.236 37.5878 40.9796 38.5564 38.1918 37.9317C39.0975 37.1648 39.5163 36.1961 39.4481 35.0257Z" fill="#A5C2DB"></path><path fill-rule="evenodd" clip-rule="evenodd" d="M21.231 37.9316C23.1155 37.9316 25 37.9316 26.8845 37.9316C26.8845 38.7065 26.8845 39.4815 26.8845 40.2564C25.1033 39.5151 23.2188 39.1276 21.231 39.094C21.231 38.7065 21.231 38.3191 21.231 37.9316Z" fill="#A4C3DB"></path><path opacity="0.983" fill-rule="evenodd" clip-rule="evenodd" d="M21.231 39.0941C23.2188 39.1276 25.1033 39.5151 26.8846 40.2564C26.5015 40.7743 26.2921 41.3555 26.2564 42C23.3249 42 20.3934 42 17.4619 42C17.4619 41.4188 17.4619 40.8376 17.4619 40.2564C19.0839 40.5323 20.3403 40.1448 21.231 39.0941Z" fill="#D6E5EF"></path><path fill-rule="evenodd" clip-rule="evenodd" d="M26.8845 40.2564C27.9315 40.2564 28.9784 40.2564 30.0254 40.2564C30.0254 40.8376 30.0254 41.4188 30.0254 42C28.7691 42 27.5127 42 26.2563 42C26.2921 41.3554 26.5015 40.7743 26.8845 40.2564Z" fill="#A7C4DC"></path></svg>