<svg xmlns="http://www.w3.org/2000/svg" width="50" height="50" viewBox="0 0 50 50" fill="none"><rect width="50" height="50" rx="10" fill="#00CC96" fill-opacity="0.2"></rect><path d="M25 42C34.3888 42 42 34.3888 42 25C42 15.6112 34.3888 8 25 8C15.6112 8 8 15.6112 8 25C8 34.3888 15.6112 42 25 42Z" fill="#006775"></path><path d="M41.8737 27.1899L35.6408 20.9571C34.1388 19.2584 30.4889 17.1388 26.6705 20.8728L24.8455 19.1181H20.3113V21.4203L18.8373 19.8762L15.9174 19.3989L14.4996 21.4906L17.9108 25.0843L18.3319 28.3973L15.8472 25.8564L13.7556 28.7342L26.9372 41.9158C34.7002 41.0314 40.8769 34.9389 41.8736 27.204V27.1899H41.8737Z" fill="#055661"></path><path d="M31.1205 18.6969V18.7109C28.0884 18.7109 25.4633 21.1536 25.4633 24.3682C25.4633 26.7547 26.9654 28.8885 29.2114 29.6886C29.8291 29.8992 30.4609 30.0115 31.1206 30.0115C34.1528 30.0115 36.7779 27.5689 36.7779 24.3542C36.7779 21.1676 34.1809 18.6969 31.1205 18.6969ZM35.346 21.5748C35.7951 22.2767 36.09 23.1049 36.1461 23.9893H35.1354C35.0933 23.2172 34.8827 22.5013 34.5739 21.8415H34.5598C34.8266 21.7572 35.0933 21.6731 35.346 21.5748ZM34.9389 21.0273C34.7002 21.1115 34.4616 21.1817 34.2229 21.2378C33.7175 20.4657 33.0297 19.834 32.2295 19.3848C33.2964 19.6375 34.251 20.2131 34.9389 21.0273ZM32.7209 24.6771H34.5458C34.5037 25.2948 34.3493 25.8843 34.1107 26.4319C33.6193 26.3056 33.114 26.2213 32.5946 26.1511C32.6647 25.6739 32.7068 25.1826 32.7209 24.6771ZM32.5524 22.2485C33.0437 22.1924 33.521 22.1082 33.9842 21.9959C34.2931 22.5995 34.4897 23.2733 34.5458 23.9892H32.7208C32.7068 23.3857 32.6507 22.8101 32.5524 22.2485ZM33.6193 21.3782C33.2262 21.4625 32.8332 21.5186 32.426 21.5607C32.2856 20.9571 32.1172 20.3815 31.8926 19.8481C32.5805 20.2131 33.1701 20.7465 33.6193 21.3782ZM31.8786 22.2907C31.9628 22.8382 32.0189 23.3997 32.033 23.9753H30.2782C30.2923 23.3998 30.3484 22.8382 30.4326 22.3048C30.6432 22.3188 30.8538 22.3188 31.0644 22.3188C31.331 22.3188 31.5978 22.3047 31.8645 22.2907H31.8786ZM28.678 22.1082C29.043 22.1784 29.408 22.2345 29.787 22.2767C29.7027 22.8241 29.6466 23.3997 29.6185 24.0034H28.1726C28.2147 23.3296 28.3972 22.6978 28.678 22.1223L28.678 22.1082ZM29.6185 24.6912C29.6325 25.1826 29.6747 25.6739 29.7448 26.1512C29.3377 26.1933 28.9447 26.2495 28.5656 26.3337C28.355 25.8283 28.2147 25.2668 28.1726 24.6913L29.6185 24.6912ZM29.8431 26.8249C29.9554 27.4145 30.1238 27.9761 30.3203 28.4954C29.7448 28.0883 29.2394 27.5549 28.8745 26.9512C29.1973 26.8951 29.5202 26.853 29.8431 26.8249ZM29.9133 21.6028C29.6184 21.5747 29.3237 21.5326 29.043 21.4905C29.3939 20.9852 29.8291 20.5359 30.3344 20.185C30.1659 20.6341 30.0256 21.1115 29.9133 21.6028ZM30.5591 21.6168C30.5602 21.6168 30.5612 21.6169 30.5623 21.6169C30.7026 20.9483 30.9117 20.3214 31.1487 19.7498C31.3873 20.3253 31.5979 20.9571 31.7382 21.6168C31.5136 21.6308 31.289 21.6308 31.0644 21.6308C30.897 21.6308 30.7297 21.617 30.5623 21.6169C30.5613 21.6216 30.5601 21.6262 30.5591 21.6309L30.5591 21.6168C30.5591 21.6168 30.5592 21.6168 30.5591 21.6168ZM30.3204 19.3287C30.3906 19.3427 30.4748 19.3568 30.545 19.3708C29.6747 19.848 28.9447 20.5359 28.4252 21.3642C28.0181 21.2799 27.6251 21.1676 27.2601 21.0413C28.0322 20.1429 29.0991 19.5112 30.3204 19.3287ZM26.853 21.5888C27.2461 21.7432 27.6671 21.8696 28.1024 21.9818C27.8217 22.5996 27.6392 23.2733 27.597 23.9893H26.0529C26.109 23.1049 26.4038 22.2906 26.853 21.5888ZM26.0529 24.6771H27.597C27.6391 25.2949 27.7795 25.8984 28.0042 26.4459L27.9901 26.4599C27.5409 26.5722 27.1198 26.7126 26.7126 26.867C26.3336 26.2214 26.095 25.4773 26.0529 24.6771ZM30.3064 29.3517C29.0008 29.1412 27.8497 28.4393 27.0777 27.4286C27.4567 27.2882 27.8638 27.1759 28.2849 27.0776C28.8044 28.0182 29.5905 28.7902 30.531 29.3096C30.4608 29.3237 30.3765 29.3377 30.3064 29.3517ZM31.1346 28.8886C30.8556 28.2328 30.646 27.5214 30.4918 26.7547C30.4909 26.7547 30.4898 26.7547 30.4889 26.7549V26.7408C30.4898 26.7454 30.4909 26.75 30.4918 26.7547C30.6734 26.7409 30.8688 26.7409 31.0503 26.7409C31.289 26.7409 31.5417 26.7549 31.7803 26.7549C31.626 27.5128 31.4154 28.2288 31.1346 28.8886ZM31.0504 26.0529C30.8258 26.0529 30.6012 26.0529 30.3766 26.0669C30.3205 25.6177 30.2783 25.1404 30.2643 24.6631H32.005C31.991 25.1544 31.9629 25.6177 31.8927 26.081C31.6119 26.0669 31.3311 26.0529 31.0504 26.0529ZM32.4963 26.839C32.9454 26.8811 33.3807 26.9653 33.7877 27.0496C33.3246 27.7796 32.6647 28.3972 31.9067 28.8043C32.1594 28.1866 32.3559 27.5268 32.4963 26.839ZM32.2437 29.2816C33.128 28.7902 33.872 28.0603 34.3774 27.19C34.6301 27.2601 34.8828 27.3444 35.1214 27.4286C34.4195 28.341 33.4088 29.0149 32.2437 29.2816ZM34.6862 26.5863C34.9389 25.9968 35.1074 25.351 35.1495 24.6771H36.1602C36.104 25.4772 35.8653 26.2213 35.4863 26.867C35.2197 26.7688 34.953 26.6705 34.6862 26.5863Z" fill="#00CC96"></path><path d="M31.4014 21.9396C32.8074 21.9396 33.9564 23.0886 33.9564 24.4947C33.9564 25.9007 32.8074 27.0497 31.4014 27.0497C29.9953 27.0497 28.8463 25.9007 28.8463 24.4947C28.8463 23.0886 29.9953 21.9396 31.4014 21.9396Z" fill="#00CC96"></path><path d="M37.1568 32.5946L34.4335 27.8638C34.3493 27.7375 34.1809 27.6954 34.0545 27.7656L33.9422 27.8358L33.521 27.1198V27.1198H33.5069C34.1386 26.6145 34.5878 25.8986 34.7282 25.0422C35.037 23.2173 33.8017 21.4766 31.9627 21.1678C30.1378 20.8589 28.3971 22.0943 28.0882 23.9333C27.7794 25.7582 29.0147 27.4989 30.8537 27.8077C31.4714 27.906 32.1031 27.8358 32.6506 27.6112L33.0717 28.3272L32.9594 28.3974C32.8331 28.4816 32.791 28.65 32.8612 28.7764L35.5845 33.5072C35.6687 33.6336 35.8372 33.6757 35.9636 33.6055L37.0586 32.9737C37.1849 32.8895 37.227 32.7209 37.1568 32.5946ZM31.458 26.876C30.1148 26.876 29.0259 25.7871 29.0259 24.4439C29.0259 23.1007 30.1148 22.0117 31.458 22.0117C32.8012 22.0117 33.8901 23.1007 33.8901 24.4439C33.8901 25.7871 32.8012 26.876 31.458 26.876Z" fill="#F7F7F8"></path><path d="M29.8571 24.0595C29.8431 24.1578 29.7588 24.2139 29.6746 24.1999C29.6044 24.1859 29.5483 24.1156 29.5483 24.0455C29.5483 24.0174 29.5623 23.9893 29.5623 23.9472C29.7308 22.9225 30.7134 22.2205 31.7382 22.389C31.7662 22.389 31.7943 22.403 31.8224 22.403H31.8364C31.9347 22.4171 31.9908 22.5013 31.9768 22.5996C31.9628 22.6839 31.8785 22.754 31.7803 22.74C31.7522 22.726 31.7101 22.726 31.682 22.726C30.8397 22.5856 30.0255 23.1611 29.8851 24.0034C29.8851 24.0175 29.8851 24.0315 29.8711 24.0596H29.857L29.8571 24.0595Z" fill="#F7F7F8"></path><path d="M34.0686 27.7514L33.0719 28.3269L32.9596 28.3971C32.8333 28.4673 32.7911 28.6358 32.8613 28.7762L35.5847 33.507C35.6549 33.6333 35.8234 33.6754 35.9638 33.6052L37.0587 32.9735C37.185 32.9033 37.2272 32.7349 37.157 32.5945L34.4337 27.8637C34.3635 27.7374 34.2091 27.6952 34.0827 27.7514H34.0686Z" fill="#E84F4F"></path><path d="M33.9281 27.8357L34.0404 27.7655C34.1667 27.6953 34.3353 27.7374 34.4195 27.8638L37.1429 32.5946C37.2131 32.7209 37.171 32.8894 37.0446 32.9736L36.4971 33.2965L33.5352 28.0603L33.9281 27.8357Z" fill="#C94545"></path><path d="M19.2163 22.2626V21.8414C19.2163 20.9991 19.1321 20.3956 18.9637 20.0446C18.7952 19.6936 18.4723 19.3988 17.967 19.1602C17.4616 18.9356 16.858 18.8092 16.128 18.8092C15.4682 18.8092 14.9207 18.9075 14.4434 19.1321C13.9801 19.3426 13.6433 19.6375 13.4327 20.0165C13.2221 20.3954 13.1238 20.9851 13.1238 21.7993C13.1238 22.3609 13.194 22.8241 13.3484 23.1891C13.4888 23.5541 13.6853 23.8348 13.8959 24.0454C14.1205 24.256 14.5697 24.5788 15.2576 25.0421C15.9454 25.4913 16.3666 25.8142 16.5491 26.0107C16.7175 26.2073 16.8018 26.6143 16.8018 27.232C16.8018 27.5127 16.7596 27.7233 16.6614 27.8777C16.5771 28.0181 16.4368 28.0883 16.2542 28.0883C16.0717 28.0883 15.9454 28.0321 15.8752 27.9198C15.805 27.8075 15.7629 27.5548 15.7629 27.1477V25.8563H13.194V26.5581C13.194 27.3583 13.2783 27.976 13.4327 28.3971C13.6012 28.8323 13.9381 29.1833 14.4574 29.464C14.9767 29.7448 15.6086 29.8852 16.3526 29.8852C17.0264 29.8852 17.616 29.7589 18.1213 29.5202C18.6267 29.2815 18.9636 28.9727 19.146 28.6218C19.3285 28.2568 19.4127 27.7094 19.4127 26.9513C19.4127 25.9124 19.2583 25.1544 18.9354 24.6911C18.6126 24.2279 17.8405 23.6243 16.6192 22.8942C16.1981 22.6416 15.9314 22.417 15.8331 22.2485C15.7348 22.066 15.6927 21.7993 15.6927 21.4484C15.6927 21.1676 15.7348 20.9711 15.819 20.8307C15.9032 20.6902 16.0296 20.6201 16.1981 20.6201C16.3524 20.6201 16.4647 20.6763 16.5209 20.7745C16.5911 20.8728 16.6192 21.1114 16.6192 21.4764V22.2625H19.1882H19.2163V22.2626ZM20.3253 19.0339V29.6606H25.1263V27.5408H23.0908V25.1964H24.8175V23.1749H23.0908V21.1395H24.9298V19.0197H20.3253V19.0339Z" fill="#00CC96"></path></svg>