<svg xmlns="http://www.w3.org/2000/svg" width="50" height="50" viewBox="0 0 50 50" fill="none"><path d="M37.7792 14.6199C37.7524 14.4489 37.5822 14.3544 37.4415 14.344C37.3011 14.3337 34.3292 14.14 34.3292 14.14C34.3292 14.14 32.2653 12.3382 32.0388 12.1388C31.8121 11.9394 31.3695 12 31.1977 12.0445C31.1722 12.0511 30.7467 12.1666 30.0426 12.3581C29.353 10.6136 28.1364 9.01031 25.9957 9.01031C25.9366 9.01031 25.8758 9.0125 25.8149 9.0155C25.2061 8.30755 24.4519 8 23.8006 8C18.8141 8 16.4317 13.4815 15.6847 16.2672C13.7472 16.7951 12.3706 17.1704 12.1948 17.219C11.1132 17.5173 11.079 17.5473 10.9371 18.4435C10.8299 19.1219 8 38.3668 8 38.3668L30.0516 42L42 39.727C42 39.727 37.8056 14.7909 37.7792 14.6199ZM28.8237 12.6897C28.2699 12.8404 27.6403 13.0117 26.9579 13.1974C26.9585 13.0819 26.9592 12.968 26.9592 12.8437C26.9592 11.7594 26.788 10.8865 26.5134 10.1943C27.6164 10.3162 28.351 11.4196 28.8237 12.6897ZM25.1452 10.4093C25.4518 11.085 25.6512 12.0546 25.6512 13.3632C25.6512 13.4301 25.6506 13.4913 25.6499 13.5533C24.4364 13.8838 23.1179 14.2427 21.7962 14.6027C22.5383 12.0844 23.9292 10.8682 25.1452 10.4093ZM23.6636 9.17611C23.8789 9.17611 24.0957 9.24029 24.3032 9.36593C22.7051 10.0272 20.9921 11.6927 20.2687 15.0187C19.2114 15.3065 18.178 15.5879 17.2226 15.8482C18.0699 13.3113 20.082 9.17611 23.6636 9.17611Z" fill="#95BF46"></path><path d="M37.4415 14.344C37.3011 14.3337 34.3292 14.14 34.3292 14.14C34.3292 14.14 32.2652 12.3382 32.0388 12.1388C31.954 12.0645 31.8397 12.0265 31.7201 12.0101L30.0527 41.9997L41.9999 39.727C41.9999 39.727 37.8055 14.7909 37.7791 14.6199C37.7524 14.4489 37.5822 14.3544 37.4415 14.344Z" fill="#5E8E3E"></path><path d="M25.9957 20.1495L24.5225 24.0031C24.5225 24.0031 23.2316 23.3973 21.6494 23.3973C19.3298 23.3973 19.213 24.6775 19.213 25C19.213 26.7601 24.4305 27.4344 24.4305 31.5571C24.4305 34.8005 22.0911 36.8892 18.9365 36.8892C15.1512 36.8892 13.2155 34.8175 13.2155 34.8175L14.229 31.8728C14.229 31.8728 16.2187 33.3751 17.8979 33.3751C18.9949 33.3751 19.4413 32.6155 19.4413 32.0605C19.4413 29.7645 15.1608 29.6621 15.1608 25.8896C15.1608 22.7145 17.7525 19.6417 22.9841 19.6417C24.9999 19.6417 25.9957 20.1495 25.9957 20.1495Z" fill="white"></path><rect width="50" height="50" rx="10" fill="#95BF46" fill-opacity="0.2"></rect></svg>