<svg xmlns="http://www.w3.org/2000/svg" width="50" height="50" viewBox="0 0 50 50" fill="none"><rect width="50" height="50" rx="10" fill="#EBBD05" fill-opacity="0.2"></rect><path opacity="0.988" fill-rule="evenodd" clip-rule="evenodd" d="M25.4473 18.7368C23.6578 21.4211 21.421 23.6579 18.7368 25.4474C15.323 21.8096 11.8186 18.2306 8.22368 14.7105C7.92544 13.8158 7.92544 12.9211 8.22368 12.0263C9.49121 10.7588 10.7588 9.49122 12.0263 8.22369C12.921 7.92544 13.8158 7.92544 14.7105 8.22369C18.2306 11.8187 21.8095 15.323 25.4473 18.7368Z" fill="#0474CD"></path><path opacity="0.942" fill-rule="evenodd" clip-rule="evenodd" d="M40.2104 15.1578C38.5701 13.2193 36.7806 11.4298 34.842 9.78942C35.552 8.19873 36.745 7.6768 38.421 8.22363C39.5394 9.34206 40.6578 10.4605 41.7762 11.5789C42.323 13.2549 41.8011 14.4479 40.2104 15.1578Z" fill="#C84E5F"></path><path opacity="0.987" fill-rule="evenodd" clip-rule="evenodd" d="M30.3683 14.2631C32.3069 15.9034 34.0963 17.6929 35.7367 19.6315C34.2455 21.2719 32.7542 22.9122 31.263 24.5525C28.5788 26.342 26.342 28.5789 24.5525 31.2631C21.2718 34.3947 17.9911 37.5262 14.7104 40.6578C13.0701 38.7192 11.2806 36.9298 9.34204 35.2894C12.4736 32.0087 15.6052 28.728 18.7367 25.4473C21.4209 23.6578 23.6578 21.421 25.4473 18.7367C27.0876 17.2455 28.7279 15.7543 30.3683 14.2631Z" fill="#EBBD05"></path><path opacity="0.916" fill-rule="evenodd" clip-rule="evenodd" d="M34.8423 9.78943C36.7809 11.4298 38.5704 13.2193 40.2107 15.1579C38.8686 16.7982 37.3774 18.2894 35.7371 19.6315C34.0967 17.693 32.3072 15.9035 30.3687 14.2631C31.7108 12.6227 33.202 11.1315 34.8423 9.78943Z" fill="#D9D8D7"></path><path opacity="0.98" fill-rule="evenodd" clip-rule="evenodd" d="M31.2632 24.5526C34.677 28.1904 38.1814 31.7694 41.7764 35.2895C42.0746 36.1842 42.0746 37.0789 41.7764 37.9737C40.5088 39.2412 39.2413 40.5088 37.9737 41.7763C37.079 42.0746 36.1843 42.0746 35.2895 41.7763C31.7695 38.1813 28.1905 34.677 24.5527 31.2631C26.3422 28.5789 28.579 26.3421 31.2632 24.5526Z" fill="#0474CD"></path><path opacity="0.926" fill-rule="evenodd" clip-rule="evenodd" d="M9.34239 35.2894C11.281 36.9298 13.0704 38.7193 14.7108 40.6579C13.6793 40.8782 12.6355 41.0273 11.5792 41.1052C10.5354 40.3596 9.64065 39.4649 8.89502 38.421C8.97291 37.3648 9.12201 36.3209 9.34239 35.2894Z" fill="#EEEEEE"></path><path fill-rule="evenodd" clip-rule="evenodd" d="M8.89473 38.421C9.64036 39.4649 10.5351 40.3596 11.5789 41.1052C10.5029 41.6726 9.30998 41.9708 8 42C8.02914 40.69 8.32738 39.497 8.89473 38.421Z" fill="#888888"></path></svg>