<svg xmlns="http://www.w3.org/2000/svg" width="50" height="50" viewBox="0 0 50 50" fill="none"><rect width="50" height="50" rx="10" fill="#0D86AD" fill-opacity="0.2"></rect><path fill-rule="evenodd" clip-rule="evenodd" d="M28.3876 8.03315C28.3876 8.74077 28.3876 9.44845 28.3876 10.1561C24.9972 10.1561 21.6068 10.1561 18.2164 10.1561C18.2164 11.2175 18.2164 12.279 18.2164 13.3405C21.3242 13.3405 24.4321 13.3405 27.54 13.3405C27.54 14.0481 27.54 14.7558 27.54 15.4634C21.0417 15.4634 14.5434 15.4634 8.04517 15.4634C7.91803 13.0228 8.0593 10.6345 8.46897 8.29851C15.107 8.0332 21.7466 7.94473 28.3876 8.03315Z" fill="#036DC3"></path><path opacity="0.996" fill-rule="evenodd" clip-rule="evenodd" d="M28.3873 8.03312C32.7688 7.94475 37.1481 8.03322 41.5251 8.29849C41.9348 10.6345 42.076 13.0228 41.9489 15.4634C38.4172 15.4634 34.8855 15.4634 31.3539 15.4634C30.0825 15.4634 28.8111 15.4634 27.5397 15.4634C27.5397 14.7558 27.5397 14.0481 27.5397 13.3404C28.5285 13.3404 29.5174 13.3404 30.5063 13.3404C33.7554 13.3404 37.0045 13.3404 40.2537 13.3404C40.2537 12.279 40.2537 11.2175 40.2537 10.1561C37.0045 10.1561 33.7554 10.1561 30.5063 10.1561C29.7999 10.1561 29.0936 10.1561 28.3873 10.1561C28.3873 9.44842 28.3873 8.74074 28.3873 8.03312Z" fill="#095DA8"></path><path fill-rule="evenodd" clip-rule="evenodd" d="M28.3875 10.1561C29.0939 10.1561 29.8002 10.1561 30.5065 10.1561C30.5065 11.2175 30.5065 12.279 30.5065 13.3405C29.5177 13.3405 28.5288 13.3405 27.5399 13.3405C24.4321 13.3405 21.3242 13.3405 18.2163 13.3405C18.2163 12.279 18.2163 11.2175 18.2163 10.1561C21.6067 10.1561 24.9971 10.1561 28.3875 10.1561Z" fill="#68C9E6"></path><path fill-rule="evenodd" clip-rule="evenodd" d="M30.5068 10.1561C33.756 10.1561 37.0051 10.1561 40.2543 10.1561C40.2543 11.2175 40.2543 12.279 40.2543 13.3405C37.0051 13.3405 33.756 13.3405 30.5068 13.3405C30.5068 12.279 30.5068 11.2175 30.5068 10.1561Z" fill="#52B9D7"></path><path fill-rule="evenodd" clip-rule="evenodd" d="M10.1641 10.156C12.1383 9.89843 12.7034 10.8715 11.8593 13.0751C9.83697 13.5052 9.27188 12.5322 10.1641 10.156Z" fill="#50BFF1"></path><path fill-rule="evenodd" clip-rule="evenodd" d="M14.4019 10.156C16.3761 9.89843 16.9412 10.8715 16.0971 13.0751C14.0748 13.5052 13.5097 12.5322 14.4019 10.156Z" fill="#51BEF1"></path><path fill-rule="evenodd" clip-rule="evenodd" d="M27.9637 18.6478C28.5187 21.3901 28.5187 24.1323 27.9637 26.8741C23.304 27.1394 18.6422 27.2279 13.9783 27.1395C12.8682 27.2819 11.8087 27.105 10.7998 26.6088C10.4601 23.9981 10.5307 21.4329 11.0117 18.9131C16.6606 18.6478 22.3113 18.5594 27.9637 18.6478Z" fill="#0D86AD"></path><path fill-rule="evenodd" clip-rule="evenodd" d="M39.4064 19.1786C39.5427 25.6784 39.4015 32.1357 38.9826 38.5503C36.4398 38.9041 33.897 38.9041 31.3541 38.5503C30.9403 35.3257 30.7991 32.0529 30.9303 28.7317C30.7991 25.4106 30.9403 22.1378 31.3541 18.9132C34.0727 18.4938 36.7568 18.5823 39.4064 19.1786Z" fill="#0D86AD"></path><path fill-rule="evenodd" clip-rule="evenodd" d="M8.04517 15.4633C14.5434 15.4633 21.0417 15.4633 27.54 15.4633C28.8114 15.4633 30.0828 15.4633 31.3542 15.4633C30.2241 16.5248 29.094 17.5862 27.9638 18.6477C22.3114 18.5593 16.6607 18.6478 11.0118 18.9131C10.5308 21.4328 10.4602 23.998 10.7999 26.6087C11.8088 27.1049 12.8683 27.2818 13.9784 27.1394C12.0166 28.9021 10.0389 30.6712 8.04517 32.4468C8.04517 26.7856 8.04517 21.1245 8.04517 15.4633Z" fill="#71CFEB"></path><path fill-rule="evenodd" clip-rule="evenodd" d="M41.9494 17.0555C42.0869 25.3232 41.9456 33.5496 41.5256 41.7346C30.5068 42.0885 19.488 42.0885 8.46917 41.7346C8.15029 41.3786 8.00902 40.9363 8.04537 40.4078C9.0181 39.8905 9.86568 39.1829 10.5882 38.2849C16.3484 38.8938 22.1403 38.9822 27.964 38.5502C28.519 35.8084 28.519 33.0662 27.964 30.3239C29.015 29.9301 30.0038 29.3993 30.9306 28.7317C30.7994 32.0528 30.9406 35.3256 31.3544 38.5502C33.8972 38.9041 36.44 38.9041 38.9828 38.5502C39.4018 32.1356 39.543 25.6784 39.4066 19.1785C40.2542 18.4708 41.1018 17.7632 41.9494 17.0555Z" fill="#4BB4D4"></path><path fill-rule="evenodd" clip-rule="evenodd" d="M31.3542 15.4633C34.8859 15.4633 38.4176 15.4633 41.9492 15.4633C41.9492 15.9941 41.9492 16.5248 41.9492 17.0555C41.1016 17.7631 40.254 18.4708 39.4064 19.1784C36.7568 18.5822 34.0728 18.4937 31.3542 18.9131C30.9404 22.1377 30.7992 25.4105 30.9304 28.7316C30.0036 29.3993 29.0147 29.93 27.9638 30.3238C22.3114 30.2354 16.6607 30.3239 11.0118 30.5892C10.601 33.1031 10.4598 35.6683 10.588 38.2848C9.86548 39.1829 9.01789 39.8905 8.04517 40.4078C8.04517 37.7541 8.04517 35.1004 8.04517 32.4468C10.0389 30.6711 12.0166 28.9021 13.9784 27.1394C18.6423 27.2278 23.3041 27.1393 27.9638 26.8741C28.5188 24.1322 28.5188 21.3901 27.9638 18.6477C29.094 17.5862 30.2241 16.5248 31.3542 15.4633Z" fill="#62C4E2"></path><path fill-rule="evenodd" clip-rule="evenodd" d="M27.9636 30.3239C28.5186 33.0663 28.5186 35.8084 27.9636 38.5503C22.1399 38.9823 16.3479 38.8938 10.5877 38.2849C10.4595 35.6684 10.6008 33.1032 11.0115 30.5893C16.6605 30.324 22.3111 30.2355 27.9636 30.3239Z" fill="#0D86AD"></path></svg>