<svg xmlns="http://www.w3.org/2000/svg" width="50" height="50" viewBox="0 0 50 50" fill="none"><path d="M11.1555 12H38.8307C40.5822 12 42 13.8214 42 16.0715V29.6428C42 31.893 40.5822 33.7144 38.8307 33.7144H28.906L30.2682 38L24.2772 33.7144H11.1693C9.41788 33.7144 8.0001 31.893 8.0001 29.6428V16.0715C7.98616 13.8393 9.4038 12 11.1555 12Z" fill="#9B5C8F"></path><path d="M9.93611 15.711C10.1296 15.3735 10.4198 15.196 10.8068 15.1605C11.5118 15.0894 11.9126 15.5154 12.0093 16.4388C12.4378 20.1498 12.9077 23.2926 13.4052 25.8671L16.432 18.4631C16.7085 17.7883 17.0541 17.4332 17.4687 17.3977C18.0769 17.3445 18.4499 17.8415 18.602 18.8891C18.9476 21.2505 19.3898 23.257 19.915 24.9615C20.2744 20.4516 20.8825 17.2023 21.7394 15.196C21.9466 14.6988 22.2508 14.4502 22.6516 14.4146C22.9695 14.3793 23.2597 14.5035 23.5223 14.7698C23.7849 15.0361 23.9231 15.3735 23.9508 15.7819C23.9646 16.1015 23.9231 16.3678 23.8126 16.6342C23.2735 17.9126 22.8311 20.0611 22.4719 23.0439C22.1264 25.9381 22.002 28.1932 22.0849 29.809C22.1126 30.2526 22.0572 30.6433 21.9191 30.9808C21.7531 31.3714 21.5045 31.5845 21.1865 31.6199C20.8271 31.6554 20.4541 31.4425 20.0947 30.9631C18.8093 29.2761 17.7865 26.7549 17.0403 23.3991C16.1418 25.6718 15.4784 27.3763 15.0499 28.5126C14.2345 30.5191 13.5434 31.549 12.9629 31.6022C12.5897 31.6377 12.2719 31.2292 11.9955 30.3771C11.2907 28.0511 10.5304 23.5588 9.71511 16.9005C9.65973 16.4388 9.7426 16.0304 9.93611 15.711ZM39.6378 18.4986C39.1403 17.38 38.4077 16.7053 37.4264 16.4388C37.1637 16.3678 36.9151 16.3324 36.68 16.3324C35.3532 16.3324 34.2752 17.2201 33.4321 18.9957C32.7133 20.5049 32.3541 22.1739 32.3541 24.0028C32.3541 25.3699 32.5752 26.5418 33.0175 27.5184C33.515 28.637 34.2476 29.3116 35.2288 29.578C35.4914 29.6491 35.7401 29.6846 35.9752 29.6846C37.3158 29.6846 38.3938 28.7969 39.2231 27.0212C39.9418 25.4942 40.3012 23.8252 40.3012 21.9964C40.315 20.6115 40.08 19.4573 39.6378 18.4986ZM37.8963 23.4169C37.7028 24.5887 37.3572 25.4587 36.8458 26.0446C36.4451 26.5063 36.0719 26.7015 35.7264 26.6127C35.3947 26.524 35.1182 26.1512 34.911 25.4587C34.745 24.9082 34.6622 24.3578 34.6622 23.8429C34.6622 23.3991 34.6898 22.9552 34.7589 22.5469C34.8833 21.8188 35.1183 21.1085 35.4914 20.4339C35.9476 19.5637 36.4313 19.2088 36.9288 19.3331C37.2606 19.4218 37.5371 19.7948 37.7443 20.4871C37.9101 21.0376 37.993 21.588 37.993 22.1029C37.993 22.5646 37.9654 23.0086 37.8963 23.4169ZM30.9857 18.4986C30.4882 17.38 29.7418 16.7053 28.7744 16.4388C28.5118 16.3678 28.263 16.3324 28.028 16.3324C26.7012 16.3324 25.6231 17.2201 24.78 18.9957C24.0614 20.5049 23.702 22.1739 23.702 24.0028C23.702 25.3699 23.9231 26.5418 24.3654 27.5184C24.8629 28.637 25.5955 29.3116 26.5767 29.578C26.8394 29.6491 27.088 29.6846 27.3231 29.6846C28.6637 29.6846 29.7418 28.7969 30.5711 27.0212C31.2898 25.4942 31.6491 23.8252 31.6491 21.9964C31.6491 20.6115 31.428 19.4573 30.9857 18.4986ZM29.2304 23.4169C29.0369 24.5887 28.6914 25.4587 28.18 26.0446C27.7792 26.5063 27.406 26.7015 27.0604 26.6127C26.7288 26.524 26.4524 26.1512 26.245 25.4587C26.0792 24.9082 25.9963 24.3578 25.9963 23.8429C25.9963 23.3991 26.024 22.9552 26.093 22.5469C26.2175 21.8188 26.4524 21.1085 26.8256 20.4339C27.2817 19.5637 27.7654 19.2088 28.2629 19.3331C28.5947 19.4218 28.8712 19.7948 29.0784 20.4871C29.2444 21.0376 29.3271 21.588 29.3271 22.1029C29.3411 22.5646 29.2995 23.0086 29.2304 23.4169Z" fill="white"></path><rect width="50" height="50" rx="10" fill="#9B5C8F" fill-opacity="0.2"></rect></svg>
